<svg width="1035" height="451" viewBox="0 0 1035 451" fill="none" xmlns="http://www.w3.org/2000/svg">
<path d="M633 89.5C633.8 89.7 634.6 90 635.3 90.2C638.1 91.1 639.2 94.1 637.7 96.7C636.6 98.6 634.9 100.1 633.4 101.7C632.1 103 630.5 104.2 629.9 106C629.3 107.7 628.7 109.5 628.5 111.3C628.2 113.6 628.4 115.9 628.2 118.2C628.1 120.7 627.5 123.1 625.4 124.7C624.4 125.5 623.2 126 621.8 126.2C618 126.7 615.6 124.5 613.5 121.9C609.5 116.9 607.4 111 605.7 104.9C605.4 103.8 605.3 102.6 605.1 101.4C605.1 101.3 605 101.2 604.9 101.1C604.9 99.6 604.9 98.1 604.9 96.6C605 96.3 605.2 96 605.3 95.8C605.9 93.8 607.6 92.7 609.6 92.7C611.1 92.7 612.3 93.3 613.6 93.9C615.2 94.7 616.7 94.7 618.3 93.9C620.5 92.8 622.7 91.7 625 90.8C626.1 90.3 627.4 90 628.6 89.7C630.1 89.5 631.5 89.5 633 89.5Z" fill="#302F3F"/>
<path d="M724.2 107.8C724.1 111.8 723.5 115.6 721.8 119.1C721.2 120.4 720.4 121.6 719.2 122.4C717.1 123.8 714.3 123.3 713.2 120.8C712.5 119.4 712 118 711.3 116.6C710.6 115.3 709.6 114.1 707.9 114.5C707 114.7 706.1 115.3 705.3 115.8C704.5 116.4 703.9 117.2 703.1 117.8C701.3 119.2 699.8 119.2 697.6 117.8C696.8 117.3 695.9 116.8 695 116.4C694 115.9 693 116.2 692.3 117.1C691.2 118.4 690.3 119.8 689.3 121.1C688.2 122.4 686.9 123.2 685.2 123.3C680.9 123.7 678.8 120.9 677.9 117.6C677.2 115 677.2 112.4 677.5 109.8C677.8 106.5 678.1 103.2 679.3 100.1C680.4 97.2999 681.7 94.7999 684.5 93.2999C687.8 91.4999 691.8 91.7999 694.9 94.4999C696.6 95.9999 698.5 97.2 700.8 97.1C702.7 97 704.2 96.0999 705.8 95.1C707.3 94.2 708.7 93.2 710.3 92.6C713.2 91.5 716.1 91.8 718.7 93.7C721.5 95.8 722.8 98.7999 723.5 102C723.9 103.7 724 105.8 724.2 107.8Z" fill="#302F3F"/>
<path d="M765 105.6C765.1 110.5 763.8 115 761.9 119.4C760.8 122.2 759.3 124.7 757.5 127.1C755.1 130.3 752.2 133 748.7 135.1C746.3 136.6 743.7 137.7 740.9 138C737.9 138.4 734.9 138.6 731.9 137.6C728.3 136.4 727.7 131.9 730.1 129.3C731.6 127.7 733.6 126.8 735.4 125.6C737.1 124.5 738.6 123.2 738.9 121.1C739.1 120 738.9 118.9 738.7 117.9C738 115 736.3 112.5 734.9 109.8C733.7 107.5 732.7 105.1 732.3 102.6C731.9 100.4 732.1 98.4001 733.6 96.6001C735.8 94.0001 738.7 93.4001 741.4 95.3001C742.8 96.3001 744 97.5001 745.3 98.6001C747.5 100.7 750 101.1 752.8 99.7001C754.5 98.9001 756.1 98.0001 757.9 97.7001C759.8 97.4001 761.7 97.4001 763.2 98.8001C764.5 100 764.9 101.6 765 103.2C765.1 104.1 765 104.9 765 105.6Z" fill="#302F3F"/>
<path d="M656.6 129.9C652.2 129.9 648.3 128.6 645 125.8C641.9 123.2 640 119.8 639.4 115.8C638.9 112.3 639.2 108.9 640.8 105.7C642.4 102.4 644.8 99.7001 647.9 97.8001C650.3 96.4001 652.8 95.5001 655.6 95.3001C659.8 94.9001 663.6 95.8001 666.7 98.7001C669.4 101.2 670.5 105.3 667.9 109.1C667.1 110.3 666.1 111.5 665.4 112.8C664.6 114 664 115.3 664.3 116.8C664.5 117.6 665 118.3 665.5 118.9C666.2 119.8 667.3 120.5 667.9 121.4C669.4 123.7 668.9 125.7 666.6 127.3C664.5 128.7 662.1 129.4 659.6 129.7C658.6 129.8 657.6 129.8 656.6 129.9Z" fill="#302F3F"/>
<path d="M450.6 256.9C450.3 256.8 450.1 256.6 449.8 256.5C448 255.9 447.1 254.3 447.6 252.3C447.9 250.8 449.6 249.7 451.3 249.9C451.5 249.9 451.8 250.2 451.9 250.5C452.3 251.4 452.7 252.3 453.1 253.2C453.5 254 454 254.2 454.6 253.5C455.4 252.6 455.9 251.5 456.5 250.4C457 249.4 457.4 248.3 457.9 247.3C458.3 246.6 458.1 245.9 457.8 245.2C456.2 241.3 454.6 237.3 453 233.4C451.8 230.6 451 227.5 448.9 224.9C452.1 224.9 455.1 224.9 458.3 224.9C457.7 225.6 457.1 226.2 456.6 226.9C456.4 227.2 456.3 227.6 456.4 227.9C457.9 231.6 459.3 235.2 460.8 238.9C460.8 239 460.9 239 461 239.2C461.7 237.5 462.4 235.9 463 234.3C463.5 233.1 464 231.8 464.5 230.5C464.8 229.7 464.8 229 464.3 228.3C463.6 227.2 463 226.1 462.2 224.9C464.5 224.9 466.6 224.9 468.9 224.9C468.2 226 467.5 226.9 466.9 227.9C466.1 229.3 465.4 230.6 464.8 232.1C462.9 236.8 461 241.5 459.1 246.2C458 248.8 456.9 251.3 455.6 253.8C454.9 255.2 453.6 256.1 452.1 256.4C451.8 256.5 451.6 256.7 451.4 256.8C451.1 256.9 450.8 256.9 450.6 256.9Z" fill="#302E3F"/>
<path d="M372.1 218.9C374.6 218.9 377 218.9 379.3 218.9C381.8 219 381.8 219 382.8 221.4C384.9 226.4 387.1 231.3 389.3 236.4C389.7 235.6 390 234.9 390.3 234.2C391.8 230.3 393.4 226.4 394.9 222.5C395.2 221.8 395.5 221.2 395.7 220.5C396.4 218.7 396.4 218.7 398.3 218.7C400.3 218.7 402.4 218.7 404.7 218.7C403.6 219.5 402.6 220.2 401.8 220.9C401.5 221.2 401.2 221.7 401.2 222.1C401.2 228.5 401.2 235 401.2 241.4C401.2 241.8 401.5 242.3 401.8 242.5C402.7 243.2 403.7 243.9 404.8 244.7C400.5 244.7 396.4 244.7 392.1 244.7C393.2 243.9 394.2 243.2 395.1 242.5C395.4 242.3 395.6 241.8 395.6 241.5C395.6 235.7 395.6 229.9 395.6 224.1C395.6 224 395.6 224 395.4 223.8C392.7 231 390 238 387.1 245.2C383.6 237.6 380.7 230.1 377.2 222.8C377.1 222.8 377 222.8 376.9 222.9C376.9 223.2 376.9 223.5 376.9 223.9C376.9 228.6 377 233.3 376.8 237.9C376.7 239.9 377.5 241.2 378.9 242.4C379.8 243.1 380.5 244 381.4 245C378 245 374.8 245 371.4 245C372.3 244.1 373 243.4 373.7 242.6C374.3 242 374.9 241.6 375.4 241C375.7 240.6 375.9 240 375.9 239.6C375.9 234.2 375.9 228.7 375.9 223.3C375.9 222.8 375.6 222.2 375.2 221.9C374.2 220.8 373.2 219.9 372.1 218.9Z" fill="#302E3F"/>
<path d="M501.5 245C497.9 245 494.5 245 490.8 245C491.6 244.4 492.3 244 492.8 243.4C493.1 243.1 493.5 242.6 493.5 242.2C493.5 237.5 493.5 232.8 493.5 228.1C493.5 226.9 492.3 226.7 491.8 226C491.5 225.7 491.1 225.5 490.6 225C493.4 225 495.9 225 498.6 225C498.6 226.3 498.6 227.6 498.6 228.9C499.4 227.9 500.1 226.7 501.1 225.8C503.2 224 507.8 223.9 509.6 227C510.7 228.8 510.9 230.8 510.9 232.8C510.9 235.8 510.9 238.8 510.8 241.7C510.8 242.5 511 243.1 511.8 243.6C512.4 243.9 512.9 244.4 513.6 244.9C510 244.9 506.6 244.9 503 244.9C503.5 244.5 503.8 244.1 504.3 243.8C505.3 243.2 505.7 242.4 505.7 241.3C505.7 238.9 505.8 236.5 505.8 234.1C505.8 232.7 505.6 231.4 505.4 230C505.2 228.8 504.6 227.8 503.3 227.4C502 227 500.8 227.5 499.8 228.4C499 229.2 498.5 230 498.6 231.3C498.7 234.8 498.7 238.2 498.6 241.7C498.6 242.5 498.8 243.1 499.6 243.5C500.2 243.9 500.7 244.4 501.5 245Z" fill="#302E3F"/>
<path d="M449.4 245C445.8 245 442.4 245 438.7 245C439.5 244.4 440.2 243.9 440.9 243.3C441.2 243.1 441.5 242.7 441.5 242.4C441.5 238.6 441.5 234.8 441.4 231C441.4 230.2 441 229.4 440.6 228.7C440 227.5 438.1 227 436.9 227.7C435.4 228.5 434.3 229.6 434.4 231.6C434.5 235 434.5 238.4 434.4 241.9C434.4 242.6 434.6 243.1 435.2 243.5C435.8 243.9 436.4 244.4 437.2 244.9C433.6 244.9 430.2 244.9 426.6 244.9C427.3 244.4 427.8 243.9 428.5 243.6C429.1 243.2 429.4 242.8 429.4 242.1C429.4 237.5 429.4 232.9 429.4 228.3C429.4 227.8 429.1 227.3 428.8 227C428.2 226.4 427.4 225.8 426.6 225.1C429.4 225.1 431.9 225.1 434.5 225.1C434.5 226.5 434.5 227.8 434.5 229.4C435.2 228.4 435.6 227.4 436.3 226.6C438 224.7 440.2 224.4 442.5 225C444.7 225.5 445.8 227.1 446.3 229.1C446.6 230.5 446.7 231.9 446.8 233.3C446.8 236.2 446.8 239.1 446.7 242.1C446.7 242.8 446.9 243.3 447.6 243.7C448.1 243.9 448.6 244.4 449.4 245Z" fill="#302E3F"/>
<path d="M489 234.8C488.9 237 488.7 239 487.7 240.8C486.5 243 484.7 244.4 482.4 244.9C479.3 245.6 476.3 245.6 473.5 243.8C471.3 242.4 470.1 240.4 469.6 238C469.2 236 469.2 233.9 469.6 231.9C470.4 227.8 473.6 225 477.8 224.7C479.6 224.6 481.4 224.6 483.2 225.3C486.6 226.5 488.3 229.1 488.9 232.5C488.9 233.3 488.9 234.1 489 234.8ZM483.4 235C483.3 235 483.2 235 483.1 235C483.2 232.6 483 230.2 482.2 227.9C481.6 226.2 480.5 225.3 478.9 225.3C477.4 225.3 476.3 226.2 475.7 227.9C474.7 231.2 474.6 234.5 474.9 237.9C475 239.5 475.4 241.1 475.9 242.7C476.5 244.6 478.3 245.3 480.1 244.6C481.3 244.1 482 243.1 482.2 241.9C482.8 239.5 483.1 237.3 483.4 235Z" fill="#302E3F"/>
<path d="M417.5 234.5C417.5 232.6 417.6 230.9 417.5 229.2C417.3 226.7 415.9 225.3 413.6 225.3C412.9 225.3 412.6 225.5 412.3 226.1C411.9 227 411.5 227.8 411 228.7C410.6 229.6 410.1 230.4 409.6 231.5C408.8 229.6 408.1 227.8 407.3 225.8C409.2 225.4 410.9 224.8 412.7 224.6C414.8 224.4 416.9 224.3 418.9 225.1C421.2 226 422.1 228 422.3 230.1C422.5 233.1 422.3 236.1 422.3 239.1C422.3 239.7 422.3 240.3 422.3 240.9C422.4 242.2 422.9 242.6 424.3 242.5C424.4 242.5 424.6 242.5 424.8 242.5C424.4 244.1 423 245.1 421.2 245.1C419.1 245.1 418 244.1 417.4 241.5C416.8 242.2 416.2 243.1 415.5 243.8C413.7 245.4 410.4 245.6 408.5 244.2C406.5 242.7 405.8 239.8 406.7 237.4C408.2 233.4 413.2 232.3 416.6 233.9C416.8 234.2 417.1 234.3 417.5 234.5ZM417.4 237.9C417.5 237.1 417.5 236.3 417.5 235.5C417.5 235.3 417.3 234.9 417.1 234.8C415.5 234.1 413.4 234.6 412.4 236C411.5 237.3 411.2 238.7 411.5 240.2C411.7 241.2 412.2 242.1 413.3 242.5C415.2 243.2 417.4 241.7 417.5 239.7C417.4 239.1 417.4 238.5 417.4 237.9Z" fill="#302E3F"/>
<path d="M520.3 234.2C520.3 237.2 520.7 239.9 523.3 241.5C526.2 243.3 529 242.3 531.8 240.5C530.9 242.7 529.5 244.1 527.5 244.8C524.2 245.8 521.1 245.5 518.3 243.3C516.8 242.1 515.8 240.5 515.4 238.6C514.8 235.5 514.7 232.4 516.2 229.5C517.5 226.8 519.7 225.3 522.6 224.8C525 224.4 527.3 224.7 529.4 226C532.1 227.6 533 231.1 532.5 233.8C532.5 234 532 234.2 531.7 234.2C528.3 234.2 524.8 234.2 521.4 234.2C521.1 234.2 520.8 234.2 520.3 234.2ZM520.3 233.2C522.7 233.2 525 233.2 527.3 233.2C527.5 233.2 527.7 232.9 527.8 232.8C527.9 230.9 527.9 229 527.1 227.2C526.6 226.1 525.8 225.4 524.6 225.4C523.4 225.3 522.3 225.8 521.7 226.9C520.5 228.7 520.3 230.9 520.3 233.2Z" fill="#302E3F"/>
<path fill-rule="evenodd" clip-rule="evenodd" d="M839.726 228.342L856.719 219.537L873.905 228.342L856.719 237.177L839.726 228.342ZM941.761 232.619V232.407C941.761 229.51 943.47 228.545 946.348 228.786V223.486C939.454 223.07 936.19 226.508 936.19 232.407V232.619H933.072V237.92H936.19V253.967H941.761V237.92H948.172V253.967H953.724V237.92H958.301V232.619H953.724V232.407C953.724 229.51 955.394 228.545 958.301 228.786V223.486C951.417 223.07 948.143 226.508 948.143 232.407V232.619H941.732H941.761ZM902.803 238.412C903.712 237.705 904.444 236.794 904.938 235.753C905.433 234.711 905.677 233.569 905.651 232.417C905.651 227.415 901.577 224.007 896.45 224.007H884.554V253.938H897.406C902.658 253.938 906.848 250.404 906.848 245.248C906.853 243.853 906.479 242.482 905.767 241.282C905.054 240.081 904.03 239.096 902.803 238.432V238.412ZM896.479 229.549C896.912 229.535 897.344 229.611 897.746 229.773C898.149 229.934 898.514 230.177 898.818 230.486C899.121 230.796 899.358 231.165 899.512 231.57C899.666 231.975 899.735 232.408 899.713 232.841C899.729 233.273 899.657 233.704 899.5 234.106C899.344 234.509 899.107 234.876 898.805 235.184C898.502 235.492 898.14 235.735 897.74 235.899C897.34 236.062 896.911 236.142 896.479 236.134H890.512V229.568L896.479 229.549ZM897.377 248.406H890.512V241.396H897.377C898.309 241.396 899.203 241.766 899.862 242.425C900.521 243.084 900.891 243.978 900.891 244.91C900.891 245.843 900.521 246.736 899.862 247.396C899.203 248.055 898.309 248.425 897.377 248.425V248.406ZM924.228 232.552V244.138C924.228 247.846 922.19 249.439 919.468 249.439C916.948 249.439 915.181 247.942 915.181 245.036V232.552H909.61V245.702C909.61 251.389 913.172 254.537 917.788 254.537C920.684 254.537 922.943 253.455 924.199 251.544V253.938H929.77V232.552H924.228ZM981.444 245.49H965.137C965.948 248.299 968.284 249.497 971.19 249.497C972.104 249.533 973.013 249.361 973.85 248.993C974.686 248.625 975.428 248.071 976.018 247.372L980.537 249.931C979.478 251.43 978.059 252.638 976.41 253.443C974.761 254.248 972.936 254.624 971.103 254.537C963.852 254.537 959.266 249.622 959.266 243.25C959.22 241.744 959.484 240.245 960.043 238.847C960.602 237.448 961.443 236.179 962.514 235.12C963.585 234.061 964.862 233.234 966.267 232.691C967.672 232.148 969.174 231.9 970.679 231.963C977.061 231.963 981.618 236.964 981.618 243.25C981.623 244.013 981.565 244.775 981.444 245.528V245.49ZM970.708 236.926C969.4 236.828 968.102 237.213 967.059 238.009C966.016 238.804 965.301 239.954 965.05 241.241H976.076C975.849 240 975.18 238.884 974.193 238.097C973.206 237.311 971.968 236.909 970.708 236.964V236.926ZM989.709 236.23V232.552H984.138V253.938H989.709V243.732C989.709 239.233 993.368 237.939 996.275 238.306V232.166C993.552 232.166 990.819 233.372 989.709 236.269V236.23ZM856.719 252.277L845.132 245.992L839.735 248.888L856.728 258.09L873.905 248.966L868.44 246.069L856.719 252.277ZM845.132 236.076L856.719 241.772L868.44 236.076L873.905 238.731L856.719 247.092L839.726 238.731L845.132 236.076Z" fill="#302E3F"/>
<path d="M632.312 370.472C631.114 370.627 630.008 371.194 629.182 372.075C628.357 372.957 627.864 374.098 627.787 375.303C627.711 376.508 628.056 377.703 628.763 378.681C629.471 379.66 630.497 380.362 631.665 380.668C631.983 380.745 632.312 380.784 632.63 380.87H633.277C633.356 380.837 633.437 380.808 633.519 380.784C634.848 380.579 636.046 379.866 636.861 378.796C637.676 377.726 638.043 376.382 637.887 375.046C637.731 373.71 637.062 372.487 636.022 371.634C634.983 370.781 633.652 370.364 632.312 370.472Z" fill="#302E3F"/>
<path d="M637.39 336.273L637.748 335.916C638.29 335.359 638.696 334.683 638.934 333.943C639.171 333.203 639.235 332.417 639.119 331.648C638.962 330.387 638.345 329.229 637.386 328.395C636.427 327.561 635.195 327.111 633.924 327.13C633.215 327.144 632.516 327.298 631.866 327.583C631.217 327.868 630.63 328.278 630.139 328.79L608.261 350.621L607.981 350.901C607.467 351.444 607.079 352.092 606.842 352.801C606.605 353.51 606.526 354.262 606.61 355.004C606.748 356.276 607.35 357.452 608.301 358.307C609.253 359.163 610.486 359.637 611.766 359.639H612.335C613.637 359.467 614.843 358.857 615.753 357.91C622.927 350.698 630.139 343.447 637.39 336.273Z" fill="#302E3F"/>
<path d="M637.39 345.059C636.637 345.048 635.889 345.193 635.194 345.486C634.499 345.778 633.873 346.212 633.354 346.759C629.492 350.621 625.746 354.415 621.923 358.2C620.832 359.33 619.663 360.411 618.611 361.541C618.044 362.115 617.624 362.818 617.387 363.59C617.15 364.361 617.103 365.179 617.25 365.973C617.399 366.911 617.804 367.789 618.419 368.513C619.034 369.237 619.837 369.778 620.738 370.077C621.64 370.376 622.606 370.421 623.532 370.208C624.458 369.995 625.307 369.532 625.988 368.869C630.976 363.951 635.942 358.998 640.885 354.01C641.372 353.532 641.755 352.961 642.013 352.33C642.27 351.699 642.396 351.022 642.382 350.341C642.382 350.022 642.382 349.694 642.295 349.375C642.09 348.206 641.492 347.14 640.601 346.356C639.709 345.571 638.577 345.114 637.39 345.059Z" fill="#302E3F"/>
<path d="M763.332 369.931C763.226 369.184 762.856 368.499 762.29 368C761.769 367.564 761.203 367.185 760.6 366.871C759.789 366.465 758.949 366.185 758.138 365.779C757.796 365.615 757.472 365.414 757.172 365.181C756.972 365.029 756.838 364.805 756.8 364.556C756.762 364.307 756.823 364.053 756.97 363.848C757.057 363.771 757.134 363.646 757.25 363.607C757.456 363.459 757.689 363.351 757.935 363.288C758.647 363.138 759.386 363.192 760.069 363.443C760.716 363.684 761.286 364.013 761.923 364.293C762.251 363.646 762.57 362.922 762.975 362.275C763.016 362.221 763.045 362.159 763.059 362.093C763.073 362.027 763.072 361.958 763.056 361.893C763.041 361.827 763.011 361.766 762.968 361.713C762.926 361.661 762.872 361.618 762.811 361.589C761.458 360.687 759.848 360.249 758.225 360.344C757.016 360.34 755.834 360.704 754.836 361.386C754.382 361.705 754.007 362.125 753.743 362.613C753.478 363.101 753.33 363.644 753.31 364.199C753.291 364.753 753.4 365.305 753.629 365.811C753.859 366.316 754.203 366.762 754.633 367.112C755.012 367.436 755.435 367.706 755.888 367.913C756.69 368.319 757.539 368.637 758.341 369.004C758.747 369.163 759.128 369.381 759.47 369.651C759.666 369.743 759.827 369.894 759.931 370.084C760.036 370.273 760.077 370.49 760.05 370.704C760.024 370.919 759.93 371.119 759.782 371.277C759.635 371.434 759.441 371.541 759.229 371.582C759.074 371.65 758.912 371.701 758.746 371.737C757.998 371.866 757.229 371.782 756.526 371.495C755.761 371.22 755.052 370.812 754.43 370.288L752.905 372.664L753.021 372.789C754.082 373.725 755.382 374.349 756.776 374.591C758.17 374.833 759.604 374.684 760.919 374.16C761.481 373.956 761.989 373.624 762.401 373.19C762.813 372.756 763.119 372.232 763.294 371.659C763.367 371.449 763.421 371.232 763.458 371.013V370.047C763.332 370.028 763.332 369.989 763.332 369.931Z" fill="#302E3F"/>
<path d="M666.182 355.246C666.126 355.236 666.069 355.238 666.013 355.252C665.958 355.265 665.906 355.29 665.861 355.324C665.816 355.359 665.778 355.402 665.75 355.452C665.722 355.501 665.705 355.556 665.699 355.612C664.734 358.432 663.768 361.251 662.803 364.07C662.082 365.963 661.476 367.898 660.988 369.863C660.959 370.056 660.907 370.244 660.833 370.423C660.752 370.333 660.696 370.223 660.669 370.105C660.466 369.381 660.35 368.657 660.109 367.923C658.738 363.781 657.328 359.629 655.919 355.526C655.913 355.479 655.898 355.434 655.874 355.394C655.85 355.354 655.818 355.319 655.78 355.291C655.741 355.264 655.698 355.245 655.652 355.236C655.606 355.226 655.559 355.226 655.513 355.236H652.452C652.356 355.228 652.26 355.244 652.172 355.284C652.212 355.373 652.238 355.467 652.25 355.564C654.499 361.724 656.759 367.884 659.008 374.054C659.031 374.132 659.077 374.202 659.141 374.252C659.206 374.302 659.284 374.331 659.366 374.334H662.185C662.292 374.351 662.402 374.327 662.492 374.266C662.581 374.205 662.644 374.112 662.668 374.006C664.724 368.29 666.819 362.612 668.914 356.887C669.117 356.366 669.272 355.844 669.474 355.284C668.364 355.294 667.273 355.294 666.182 355.246Z" fill="#302E3F"/>
<path d="M692.241 351.828C692.844 351.518 693.425 351.166 693.979 350.775L692.647 348.323C692.57 348.323 692.57 348.323 692.57 348.323L692.328 348.487C691.145 349.37 689.69 349.811 688.215 349.732C687.454 349.689 686.722 349.426 686.106 348.975C685.491 348.525 685.02 347.906 684.749 347.193C684.647 346.838 684.566 346.477 684.508 346.112H694.095C694.095 345.339 694.095 344.615 694.095 343.891C693.854 341.197 692.164 338.571 688.659 338.33C687.416 338.184 686.158 338.391 685.026 338.925C683.895 339.459 682.936 340.3 682.258 341.352C681.501 342.556 681.112 343.956 681.138 345.378C681.066 346.927 681.52 348.455 682.426 349.714C683.333 350.972 684.638 351.887 686.13 352.31C688.153 352.94 690.342 352.767 692.241 351.828ZM687.047 341.11C687.552 341.009 688.069 340.983 688.582 341.033C689.221 341.16 689.789 341.519 690.177 342.043C690.564 342.566 690.742 343.214 690.677 343.862H684.749C684.791 343.219 685.036 342.606 685.449 342.112C685.862 341.617 686.422 341.266 687.047 341.11Z" fill="#302E3F"/>
<path d="M676.697 360.324C675.532 360.267 674.373 360.516 673.334 361.046C672.296 361.576 671.414 362.369 670.778 363.346C669.862 364.779 669.476 366.487 669.687 368.174C669.756 369.316 670.114 370.422 670.727 371.388C671.34 372.353 672.188 373.148 673.192 373.697C674.663 374.423 676.31 374.717 677.942 374.546C679.573 374.375 681.123 373.746 682.412 372.731C682.461 372.731 682.461 372.654 682.499 372.615C682.055 371.804 681.65 371.041 681.206 370.192L680.926 370.395C679.981 371.091 678.868 371.521 677.701 371.64C676.736 371.787 675.751 371.573 674.935 371.038C674.119 370.504 673.529 369.686 673.279 368.744L673.153 368.019H682.615C682.741 367.152 682.741 366.271 682.615 365.403C682.438 363.971 681.733 362.658 680.638 361.718C679.544 360.779 678.138 360.282 676.697 360.324ZM679.207 365.799H673.279C673.359 364.984 673.754 364.232 674.379 363.704C674.809 363.335 675.331 363.091 675.889 362.998C676.447 362.904 677.02 362.964 677.546 363.173C678.067 363.375 678.51 363.74 678.809 364.212C679.107 364.685 679.247 365.241 679.207 365.799Z" fill="#302E3F"/>
<path d="M745.171 360.324C744.113 360.276 743.058 360.477 742.092 360.912C741.126 361.346 740.276 362.001 739.61 362.825C738.638 364.128 738.11 365.708 738.103 367.334C738.034 368.832 738.452 370.313 739.294 371.554C740.137 372.795 741.358 373.729 742.777 374.218C744.78 374.896 746.965 374.796 748.898 373.938C749.645 373.634 750.339 373.213 750.954 372.692C750.51 371.881 750.066 371.08 749.661 370.269C748.665 371.095 747.444 371.603 746.156 371.727C745.502 371.817 744.836 371.751 744.213 371.533C743.59 371.314 743.028 370.951 742.574 370.472C741.978 369.821 741.635 368.978 741.608 368.097H751.109C751.109 367.334 751.109 366.61 751.109 365.885C751.089 365.129 750.919 364.384 750.609 363.693C750.299 363.003 749.855 362.381 749.302 361.864C748.75 361.346 748.1 360.944 747.391 360.68C746.682 360.415 745.927 360.294 745.171 360.324ZM747.672 365.799H741.705C741.776 365.331 741.941 364.884 742.19 364.482C742.439 364.08 742.766 363.733 743.153 363.462C743.537 363.212 743.97 363.047 744.423 362.978C744.876 362.91 745.339 362.94 745.779 363.066C746.366 363.225 746.878 363.587 747.225 364.087C747.571 364.587 747.729 365.193 747.672 365.799Z" fill="#302E3F"/>
<path d="M668.123 352.31C668.705 352.511 669.313 352.631 669.928 352.668C670.93 352.758 671.935 352.555 672.823 352.083C673.711 351.612 674.443 350.892 674.93 350.012C674.973 349.948 675.011 349.88 675.045 349.81V352.349H678.241V338.697H674.881V344.741C674.924 345.751 674.687 346.753 674.196 347.637C673.88 348.247 673.39 348.749 672.789 349.079C672.187 349.409 671.5 349.553 670.817 349.491C670.412 349.508 670.015 349.378 669.698 349.127C669.381 348.875 669.164 348.518 669.088 348.12C668.97 347.634 668.914 347.134 668.924 346.633V338.619H665.545V347.473C665.552 348.001 665.601 348.527 665.69 349.047C665.74 349.767 665.996 350.457 666.427 351.036C666.859 351.614 667.447 352.057 668.123 352.31Z" fill="#302E3F"/>
<path d="M721.323 361.087V366.764C721.332 367.535 721.198 368.301 720.927 369.024C720.691 369.736 720.245 370.361 719.646 370.814C719.048 371.267 718.326 371.529 717.577 371.563C717.321 371.611 717.058 371.605 716.805 371.544C716.552 371.483 716.314 371.368 716.109 371.208C715.903 371.049 715.734 370.847 715.613 370.617C715.491 370.386 715.42 370.133 715.404 369.873C715.34 369.474 715.314 369.07 715.327 368.666V360.691H711.938V369.545C711.946 370.13 712.014 370.712 712.141 371.283C712.24 371.962 712.522 372.601 712.955 373.133C713.389 373.665 713.958 374.07 714.603 374.305C715.335 374.569 716.114 374.678 716.891 374.624C717.794 374.613 718.678 374.366 719.456 373.906C720.234 373.447 720.877 372.792 721.323 372.007C721.323 372.007 721.41 371.881 721.487 371.804V374.257H724.712V360.604H721.323V361.087Z" fill="#302E3F"/>
<path d="M695.833 360.691C695.059 360.404 694.234 360.279 693.41 360.324C692.488 360.321 691.583 360.562 690.784 361.021C689.986 361.481 689.323 362.143 688.862 362.941C688.823 363.019 688.767 363.089 688.698 363.143V360.643H685.483V374.257H688.862V368C688.861 367.527 688.903 367.055 688.988 366.59C689.138 365.693 689.6 364.878 690.292 364.288C690.984 363.698 691.863 363.371 692.772 363.366C693.029 363.328 693.29 363.343 693.539 363.412C693.789 363.481 694.022 363.6 694.223 363.764C694.423 363.928 694.588 364.131 694.706 364.362C694.823 364.592 694.892 364.845 694.906 365.103C694.97 365.545 694.996 365.99 694.983 366.436V374.247H698.324V365.557C698.33 364.965 698.278 364.373 698.17 363.79C698.122 363.103 697.875 362.445 697.461 361.895C697.046 361.345 696.481 360.926 695.833 360.691Z" fill="#302E3F"/>
<path d="M655.629 344.654H661.422C661.992 344.654 661.905 344.741 661.905 344.171V341.671H655.629V336.235H663.121V333.338H652.172V352.311H655.59L655.629 344.654Z" fill="#302E3F"/>
<path d="M708.317 371.437C708.023 371.449 707.729 371.402 707.453 371.298C707.178 371.195 706.925 371.037 706.711 370.835C706.497 370.632 706.326 370.389 706.207 370.12C706.088 369.85 706.024 369.56 706.019 369.265C705.942 367.411 706.019 365.596 706.019 363.752C706.019 363.549 706.135 363.549 706.261 363.549H709.157V360.846H706.058V356.984C705.932 356.984 705.855 356.984 705.778 356.984H703.074C702.794 356.984 702.756 357.071 702.756 357.351V360.575C702.773 360.707 702.773 360.84 702.756 360.971H700.941V363.675H702.717V365.442C702.717 367.054 702.717 368.705 702.794 370.317C702.823 371.16 703.109 371.974 703.612 372.651C704.116 373.327 704.814 373.833 705.614 374.102C706.39 374.427 707.225 374.591 708.066 374.585C708.51 374.585 708.954 374.585 709.437 374.585V371.486C708.964 371.437 708.636 371.486 708.317 371.437Z" fill="#302E3F"/>
<path d="M702.032 349.453H701.414C701.127 349.473 700.843 349.385 700.618 349.207C700.392 349.028 700.242 348.771 700.197 348.487C700.152 348.128 700.127 347.767 700.12 347.406V333.338H696.741V347.956C696.741 348.47 696.779 348.983 696.857 349.491C696.915 350.065 697.125 350.613 697.464 351.079C697.803 351.546 698.26 351.914 698.788 352.146C699.829 352.535 700.953 352.648 702.051 352.475L702.032 349.453Z" fill="#302E3F"/>
<path d="M736.51 360.488C736.051 360.489 735.592 360.527 735.139 360.604C734.4 360.8 733.721 361.175 733.16 361.695C732.599 362.215 732.175 362.865 731.924 363.588L731.76 363.993V360.691H728.535V374.305H731.924V369.062C731.916 368.469 731.968 367.877 732.079 367.295C732.167 366.486 732.506 365.725 733.047 365.117C733.589 364.51 734.307 364.086 735.101 363.906C735.648 363.83 736.199 363.791 736.752 363.79V360.691C736.752 360.604 736.588 360.488 736.51 360.488Z" fill="#302E3F"/>
<path d="M886.3 130.3V97.3999H906.6V103H892.1V111.1H899.5V116.7H892.1V130.2H886.3V130.3Z" fill="#302F3F"/>
<path fill-rule="evenodd" clip-rule="evenodd" d="M898.4 115.1C897.9 116.5 897.6 117.9 897.6 119.4C897.6 121.4 898.1 123.3 899.1 125C900.1 126.7 901.4 128 903.1 128.9C904.8 129.9 906.7 130.3 908.8 130.3C910.6 130.3 912.3 129.9 913.9 129.1C915.5 128.3 916.7 127.3 917.7 125.9L914 123C913.4 123.8 912.7 124.4 911.7 124.8C910.8 125.2 909.8 125.4 908.8 125.4C907.3 125.4 906 125 905 124.2C904 123.4 903.3 122.3 903 121H919C919.1 120.5 919.1 119.9 919.1 119.3C919.1 117.3 918.7 115.5 917.8 113.8C916.9 112.1 915.6 110.8 914 109.8C912.4 108.8 910.5 108.3 908.5 108.3C906.9 108.3 905.4 108.6 904 109.2C902.6 109.8 901.5 110.6 900.6 111.6C899.6 112.5 898.9 113.7 898.4 115.1ZM913.6 116.9H903.1C903.5 115.8 904.2 114.8 905.1 114.2C906.1 113.5 907.2 113.2 908.4 113.2C909.7 113.2 910.9 113.6 911.8 114.3C912.9 115 913.4 115.9 913.6 116.9Z" fill="#302F3F"/>
<path fill-rule="evenodd" clip-rule="evenodd" d="M916.3 115.1C915.8 116.5 915.5 117.9 915.5 119.4C915.5 121.4 916 123.3 917 125C918 126.7 919.3 128 921 128.9C922.7 129.9 924.6 130.3 926.7 130.3C928.5 130.3 930.2 129.9 931.8 129.1C933.4 128.3 934.6 127.3 935.6 125.9L931.9 122.9C931.3 123.7 930.6 124.3 929.6 124.7C928.7 125.1 927.7 125.3 926.7 125.3C925.2 125.3 923.9 124.9 922.9 124.1C921.9 123.3 921.2 122.2 920.9 120.9H936.9C937 120.4 937 119.8 937 119.2C937 117.2 936.6 115.4 935.7 113.7C934.8 112 933.5 110.7 931.9 109.7C930.3 108.7 928.4 108.2 926.4 108.2C924.8 108.2 923.3 108.5 921.9 109.1C920.5 109.7 919.4 110.5 918.5 111.5C917.5 112.5 916.8 113.7 916.3 115.1ZM931.5 116.9H921C921.4 115.8 922.1 114.8 923 114.2C924 113.5 925.1 113.2 926.3 113.2C927.6 113.2 928.8 113.6 929.7 114.3C930.8 115 931.3 115.9 931.5 116.9Z" fill="#302F3F"/>
<path d="M935.2 122.3C935.2 124.9 935.8 126.8 937.2 128.2C938.5 129.6 940.4 130.3 942.8 130.3C943.7 130.3 944.7 130.2 946 129.9V124.9C945.6 125 945.1 125 944.6 125C943.2 125 942.3 124.7 941.8 124C941.3 123.3 941.1 122.2 941.1 120.6V97.5999H935.4V122.3H935.2Z" fill="#302F3F"/>
<path d="M409.121 346.353C411.503 348.902 412.795 352.28 412.723 355.767C412.798 359.258 411.505 362.639 409.121 365.19C407.965 366.422 406.561 367.396 405.002 368.046C403.443 368.697 401.763 369.01 400.075 368.966C398.42 368.994 396.783 368.625 395.299 367.891C393.816 367.157 392.53 366.079 391.549 364.746V368.357H386.441V332.855H391.597V346.759C392.576 345.42 393.86 344.335 395.343 343.592C396.826 342.85 398.465 342.473 400.123 342.491C401.812 342.449 403.491 342.773 405.044 343.439C406.597 344.106 407.988 345.1 409.121 346.353ZM405.182 361.724C406.682 360.093 407.489 357.943 407.432 355.728C407.491 353.51 406.684 351.356 405.182 349.723C404.458 348.913 403.562 348.274 402.56 347.853C401.558 347.432 400.475 347.24 399.389 347.29C398.291 347.257 397.199 347.462 396.187 347.89C395.176 348.318 394.269 348.96 393.528 349.771C392.107 351.438 391.326 353.557 391.326 355.748C391.326 357.938 392.107 360.057 393.528 361.724C394.277 362.529 395.191 363.162 396.208 363.578C397.225 363.995 398.32 364.186 399.418 364.138C400.498 364.188 401.575 363.998 402.572 363.58C403.569 363.163 404.46 362.529 405.182 361.724Z" fill="#302E3F"/>
<path d="M441.495 357.737H421.77C422.523 361.676 425.284 364.341 430.16 364.341C433.221 364.289 436.2 363.346 438.734 361.628L440.887 365.422C437.698 367.698 433.885 368.936 429.967 368.966C420.505 368.966 416.45 362.361 416.45 355.709C416.387 353.98 416.67 352.256 417.282 350.638C417.893 349.02 418.822 347.54 420.012 346.286C421.22 345.046 422.674 344.072 424.28 343.427C425.886 342.781 427.609 342.479 429.339 342.539C430.977 342.477 432.611 342.748 434.141 343.336C435.671 343.923 437.066 344.815 438.241 345.957C440.53 348.255 441.708 351.345 441.708 355.284C441.699 356.106 441.628 356.926 441.495 357.737ZM421.77 353.517H436.484C436.367 351.711 435.557 350.02 434.221 348.798C432.886 347.576 431.13 346.918 429.32 346.961C425.429 346.961 422.523 349.588 421.77 353.517Z" fill="#302E3F"/>
<path d="M466.483 343.119H471.455V368.376H466.483V364.91C465.447 366.198 464.131 367.232 462.635 367.935C461.14 368.637 459.503 368.99 457.851 368.965C456.156 369.008 454.471 368.685 452.912 368.018C451.353 367.352 449.955 366.358 448.814 365.103C446.429 362.516 445.148 359.101 445.241 355.583C445.18 353.862 445.463 352.146 446.075 350.536C446.687 348.926 447.615 347.454 448.804 346.208C449.969 344.995 451.375 344.039 452.931 343.402C454.488 342.765 456.16 342.461 457.841 342.51C459.502 342.485 461.146 342.844 462.645 343.559C464.144 344.274 465.458 345.326 466.483 346.633V343.119ZM464.426 361.772C465.958 360.139 466.781 357.966 466.714 355.728C466.774 353.503 465.951 351.344 464.426 349.723C463.666 348.937 462.755 348.313 461.748 347.886C460.741 347.46 459.659 347.24 458.566 347.24C457.472 347.24 456.39 347.46 455.383 347.886C454.376 348.313 453.465 348.937 452.705 349.723C451.211 351.376 450.409 353.539 450.465 355.767C450.401 357.995 451.204 360.162 452.705 361.811C453.448 362.617 454.356 363.252 455.368 363.674C456.379 364.095 457.47 364.293 458.566 364.254C459.661 364.279 460.749 364.07 461.758 363.643C462.767 363.215 463.673 362.577 464.417 361.772H464.426Z" fill="#302E3F"/>
<path d="M515.019 345.368C515.988 346.437 516.734 347.687 517.217 349.046C517.699 350.405 517.907 351.846 517.829 353.286V368.377H512.673V354.135C512.673 349.684 510.433 347.241 506.88 347.241C503.124 347.241 500.546 350.012 500.546 354.27V368.377H495.448V354.222C495.448 349.868 493.199 347.241 489.655 347.241C485.909 347.241 483.283 350.051 483.283 354.367V368.377H478.069V343.119H483.128V346.759C483.89 345.411 485.002 344.293 486.346 343.525C487.691 342.757 489.217 342.366 490.766 342.394C492.369 342.352 493.952 342.766 495.33 343.588C496.708 344.41 497.824 345.607 498.548 347.039C499.559 345.561 500.925 344.361 502.521 343.549C504.117 342.738 505.892 342.341 507.681 342.394C509.046 342.333 510.409 342.566 511.675 343.08C512.942 343.593 514.082 344.374 515.019 345.368Z" fill="#302E3F"/>
<path d="M517.955 371.177H386.036V375.135H517.955V371.177Z" fill="#302E3F"/>
<path d="M531.3 128.5C530.4 129.2 529.5 130.1 528.5 130.5C525.6 131.8 522.7 133.1 519.7 134.1C516 135.4 513.1 133.8 510.9 130.8C510.8 130.6 510.6 130.4 510.6 130.5C507.3 131.7 504.2 132.9 501.1 133.8C498.2 134.6 495.3 134.3 492.5 133.2C491.7 132.9 490.7 133 489.8 133C489.3 133 486.1 134 480.3 132.7C478.4 132.5 477.2 130.8 476.4 129C476.1 128.3 475.8 127.7 475.4 126.8C474.5 127.9 473.9 128.9 473.1 129.7C472.1 130.8 470.9 131.9 469.7 132.7C468.8 133.3 467.8 133.2 467.3 132.1C466.9 131.1 466.2 131.3 465.4 131.6C463.4 132.4 461.5 133.3 459.4 133.9C456.7 134.8 454 134.5 451.6 133C450.8 132.5 450.3 131.8 449.6 131.3C447.9 131.9 446.1 132.4 444.4 133.1C442.2 134 439.9 134 437.7 133.3C435.1 132.5 432.6 133.2 430.1 133.3C427.3 133.3 424.6 132.9 421.8 132.9C420.6 132.9 419.3 133.2 418.2 133.8C416.2 134.8 414.4 134.6 412.5 133.7C410.6 132.8 409.2 131.3 408.7 129.3C408.3 127.5 408.3 125.6 408.3 123.8C408.2 122.5 408.9 121.7 410.2 121.5C410.8 121.4 411.4 121.1 412.3 120.8C412.2 121.8 412.2 122.6 412.1 123.4C411.6 125.9 411.9 128.3 413.2 130.5C414.5 132.8 417.6 133.4 419.9 131.9C420.6 131.5 421.3 131.1 422 130.8C423.5 130.2 425.6 126.8 425.4 125.2C425.3 123.8 423.9 123.1 422 123.6C421.4 123.7 420.8 123.8 419.9 124C420.2 123.5 420.2 123.2 420.4 123C421.9 121.6 425.1 121.2 426.9 122C428.3 122.7 428.7 123.8 428 125.1C427.2 126.6 426.3 128.1 425.3 129.4C424.4 130.6 424.8 131.2 426 131.5C429.5 132.3 433.1 132.8 436.4 130.7C438.3 129.6 439.1 127.7 439.5 125.7C439.7 124.9 439.3 123.9 438 123.9C436.8 123.9 435.5 123.9 434.2 123.9C435 122.2 437.7 121.3 439.8 121.7C442.5 122.3 443 123.4 441.7 125.8C441 127.2 440.1 128.5 439.2 129.7C438.6 130.6 438.6 131.2 439.6 131.5C440.5 131.8 441.6 132.1 442.5 131.9C444.6 131.5 446.6 130.8 448.6 130.2C449 130.1 449.4 129.7 449.6 129.3C450 128.4 450.4 127.5 450.7 126.5C451.4 123.8 453.3 122.4 455.8 121.8C456.7 121.6 458 121.7 458.5 122.2C459.3 123 459.1 124.4 458.1 125.2C457 126.2 455.8 127.1 454.5 127.8C452.7 128.8 452.6 129.5 454.1 130.9C456.1 132.8 459.8 133.2 462.7 131.7C463 131.6 463.2 131.4 463.5 131.2C466 130.1 466 130.1 465.5 127.4C465.3 126.3 465.2 125.2 465 124.1C464.8 122.7 466.6 120.9 467.9 121.4C468.2 121.5 468.5 122.2 468.5 122.6C468.7 124.2 468.7 125.8 468.9 127.3C469 127.9 469.5 128.5 469.8 129C470.2 128.7 470.8 128.4 471.1 127.9C472 126.6 472.8 125.2 473.6 123.8C474.4 122.5 475.8 122 477.4 121.5C477.5 124.8 478 127.8 480.6 129.4C483.2 131.1 486.2 132.2 489.3 131.9C488.7 129 488.1 126.3 487.5 123.5C487.5 123.4 487.3 123.1 487.4 123.1C489 121.7 488.3 119.7 488.9 118C489 117.8 489.1 117.4 489.3 117.3C489.9 116.9 490.6 116.2 491 116.3C491.9 116.5 491.9 117.4 491.6 118.3C491.5 118.5 491.5 118.8 491.5 119.1C491.4 121.3 491.6 121.5 493.8 121.2C498.2 120.6 502.5 119.5 506.6 117.9C507.2 117.7 507.8 117.6 508.4 117.4C508.5 117.6 508.5 117.7 508.6 117.9C506.8 118.6 505 119.4 503.2 120C499.6 121.1 496 122 492.4 122.9C491.4 123.1 490.9 123.5 491.1 124.5C491.4 126.1 491.4 127.8 492.1 129.3C492.6 130.3 493.7 131.4 494.8 131.8C498.3 133.1 501.9 133.2 505.5 131.5C508.3 130.2 510.8 129 509.7 125.1C508.9 122.1 511 121.2 513.7 120.6C513.6 121.5 513.6 122.3 513.4 123.1C512.5 127.1 513.8 130.6 517.2 131.7C519.1 132.3 521.4 132 523.4 131.5C525.2 131.1 526.8 129.8 528.5 128.9C529.2 128.5 530 128.1 530.7 127.7C531.2 128.2 531.2 128.3 531.3 128.5ZM453.6 126.4C453.8 126.5 454 126.6 454.1 126.7C454.8 126.1 455.5 125.6 456.1 124.9C456.3 124.7 456 124.1 456 123.6C455.6 123.7 455 123.6 454.9 123.9C454.3 124.8 454 125.6 453.6 126.4Z" fill="#302F40"/>
<path d="M398.9 102C399 101.5 398.9 101 399.1 100.6C401.8 95.7001 402.2 90.4001 401.7 85.1001C401.5 83.3001 400.5 81.5001 399.6 79.9001C399 78.7001 397.6 78.5001 396.5 79.2001C395.1 80.1001 393.7 81.2001 392.8 82.5001C389.1 87.7001 386.6 93.4001 384.8 99.5001C383.6 103.7 382.4 107.9 381.2 112.1C380.9 113.3 380.8 114.6 380.6 115.9C380.5 116.9 380.9 117.3 381.9 117.2C384 117 386.2 116.9 388.3 116.8C392.2 116.5 396.2 116.3 400.1 116C400.8 116 401.5 115.7 402.2 115.7C402.9 115.7 403.7 115.8 404.4 115.8C404.4 116 404.4 116.3 404.5 116.5C403.9 116.6 403.2 116.9 402.6 116.9C395.7 117.6 388.8 118.2 381.9 118.9C380.7 119 380.1 119.6 380.3 120.9C381.2 128.2 381.1 135.6 380.8 142.9C380.8 143.9 380.7 145.3 379.5 145.2C378.8 145.2 377.6 144 377.5 143.3C377.1 140.3 376.7 137.2 376.9 134.1C377.1 129.9 377.8 125.6 378.2 121.4C378.3 120.2 378 119.5 376.7 119.7C376.3 119.8 375.9 119.8 375.6 119.6C375.2 119.4 374.9 118.9 374.5 118.6C374.9 118.3 375.2 117.7 375.6 117.6C378.2 116.7 378.3 116.8 377.7 114C377.3 111.9 376.7 109.9 376.1 107.5C375.6 108.8 375.3 109.6 374.9 110.5C373.4 109 372.9 104.8 373.9 103.4C374.9 102 376.3 101.9 377 103.6C377.9 105.6 378.5 107.8 379.1 109.9C379.3 110.5 379.4 111.1 379.8 111.7C380.2 110 380.6 108.3 381.1 106.7C382.8 101.5 384.4 96.2001 386.3 91.1001C387.9 86.9001 389.9 82.8001 393.1 79.5001C394.1 78.5001 395.3 77.6001 396.7 77.2001C398.5 76.6001 400.2 77.4001 401.4 78.8001C403.6 81.4001 404.1 84.4001 404 87.7001C403.9 92.2001 403.1 96.5001 401.2 100.6C400.9 101.3 400.2 101.8 399.6 102.5C399.3 102.3 399.1 102.1 398.9 102Z" fill="#302F40"/>
<path d="M406.8 123.2C402.8 124.6 399 125.7 395 125.9C392.7 126 392.6 126.2 392.6 128.4C392.6 130.1 392.7 131.9 391.3 133.2C390.7 133.7 389.9 134 389.1 134.3C388.8 133.7 388.5 133 388.4 132.4C388 129.8 387.6 127.2 387.3 124.5C387.3 124.1 387.4 123.5 387.6 123.3C388.1 123 389 122.6 389.3 122.8C390.1 123.4 391 123.2 391.8 123.5C396.5 125 401.1 123.8 405.7 123C405.9 123 406 123 406.2 123C406.3 123 406.4 123 406.8 123.2Z" fill="#302F40"/>
<path d="M514.5 113.8C514.6 115.3 513.9 115.9 512.6 115.9C511.4 115.9 510.5 115.3 510.4 114.1C510.2 113.1 511.5 112.2 513 112.2C514.1 112.2 514.5 112.6 514.5 113.8Z" fill="#302F40"/>
<path d="M411.5 112.1C412.9 111.9 413.2 112.7 413.2 113.7C413.3 114.8 412.4 115.8 411.3 115.8C410.1 115.7 409.2 115.2 409 114C408.9 112.9 410 112.2 411.5 112.1Z" fill="#302F40"/>
<path fill-rule="evenodd" clip-rule="evenodd" d="M994.6 319.6C992.9 319.8 991.2 320.1 989.5 320.1C988.5 320.1 987.5 320.1 986.4 320C985.5 320 984.7 319.9 983.8 319.9C982.9 319.9 982 319.9 981.1 320C979.7 320 978.3 320.1 976.9 320H972.9C970.9 319.8 969 319.9 967 320.1C965.6 320.2 964.2 320.3 962.8 320.3C960.3 320.3 957.8 320.1 955.3 320.1C953.3 320.1 951.3 320.1 949.4 320.2H946.6L938.3 320C938.1 320 937.8 320 937.6 319.9C937.3 319.9 937.1 319.8 936.8 319.8C935.4 320 934 320.1 932.6 320.2C931.2 320.2 929.5 319.8 928 319.8C927.2 319.8 926.3 319.9 925.5 320C924.6 320.1 923.8 320.2 922.9 320.2C920.7 320.2 918.6 320 916.4 320C915.2 320 914.1 320.1 912.9 320.2H911.1C909.5 320.1 908 319.9 906.4 319.9C905.3 319.9 904.2 320.2 903.1 320.3C902.5 320.3 902 320.2 901.6 320.1C901.2 320 900.9 319.9 900.5 319.9C898.1 319.9 895.6 320.2 893.2 320.2C890.7 320.2 888.3 320.2 885.9 320C883 319.9 880.1 319.8 877.1 319.7C876.8 319.7 876.5 319.8 876.2 319.9C875.7 319.9 875.4 320 875 320C873.9 320 872.7 319.8 871.6 319.8H861.6C861.6 319.8 857.9 320 856.1 320C853.6 320 851 319.9 848.5 319.8C848.1 319.8 847.7 319.9 847.3 319.9H837.4C837.4 319.9 836.3 319 836.2 318.5C836 318.3 836 318 836.1 317.7C836.2 317.4 836.4 317.2 836.6 317.1C836.7 317 836.9 317 837.1 317C838.8 317 840.5 317.2 842.2 317.3C842.5 317.4 842.7 317.4 843 317.3C844.2 316.9 845.4 317.1 846.6 317.2C847.6 317.3 848.5 317.4 849.5 317.2C850.6 317.1 851.8 317 853 317C853.6 317 854.2 317.2 854.8 317.2H864.7L874.1 317.1C874.5 317.1 874.8 317.1 875.2 317.1C875.9 317.1 876.6 317.1 877.4 317.1C879 317.1 880.6 317.3 882.1 317.3C883.6 317.3 885.7 317 887.4 317C888.7 317 890.1 317.2 891.5 317.3C892.9 317.3 894.1 317.4 895.3 317.4H906.2C907.1 317.4 908 317.1 908.9 317C909.3 317 909.8 317 910.3 317.1C910.8 317.2 911.3 317.2 911.8 317.2C915.4 317 919 317.1 922.7 317.3C924.6 317.5 926.4 317.4 928.3 317.2C930.1 317 931.9 316.9 933.7 317.1C935.1 317.1 936.6 317.2 938 317.3C938.6 317.3 939.2 317.2 939.8 317.1H945.2C946.1 317.1 947 317.2 947.9 317.2H963.8C966.5 317.2 969.1 317.3 971.8 317.4C973.6 317.4 975.5 317.4 977.4 317.4C978.4 317.4 979.3 317.4 980.2 317.4C982.3 317.4 984.4 317.2 986.5 317.2C987.5 317.2 988.5 317.4 989.5 317.4H998.7C999.4 317.3 1000.1 317.8 1000.2 318.5C1000.2 318.6 1000.3 318.7 1000.3 318.7C1000.3 319.6 999.6 319.9 998.8 319.9H994.9L994.6 319.6ZM849.1 321.3C845.7 321.3 842.2 321.1 838.8 321.1V321H837.1C836.8 321 836.5 321.2 836.3 321.5C836.1 321.8 836 322.1 836.1 322.5V322.6C836.1 322.9 836.3 323.2 836.5 323.4C836.7 323.6 837.1 323.7 837.4 323.7H848L859.5 323.6H866.7C867.3 323.7 867.9 323.8 868.5 323.8C870.6 323.3 872.8 323.3 874.8 323.8C875.1 323.9 875.5 323.9 875.8 323.8C876.4 323.2 877.1 323.3 877.7 323.4C877.9 323.4 878.2 323.5 878.4 323.5C878.7 323.5 879 323.6 879.4 323.7C879.7 323.8 880 323.9 880.3 323.9C882.3 323.8 884.3 323.6 886.3 323.6C886.7 323.6 887.1 323.6 887.5 323.7C887.9 323.8 888.3 323.8 888.8 323.8C889.8 323.8 890.7 323.6 891.7 323.6C892.4 323.6 893.1 323.6 893.9 323.6C895.4 323.6 896.8 323.6 898.1 323.6C900 323.6 902 323.7 903.8 323.8C905.2 324 906.7 324.1 908.1 324.1C910.1 323.7 912.1 323.7 914.1 324.1C914.5 324.2 915 324.2 915.4 324.1L920.5 323.8C920.9 323.8 921.2 323.9 921.6 323.9H924.6C927.7 324 930.9 324.1 934 324.1C935.9 324.1 937.8 323.8 939.7 323.8C940.1 323.8 940.6 323.8 941 323.9C941.4 324 941.8 324 942.1 324H953.5C954.8 324 956 324.2 957.2 324.2C959 324.2 960.9 324.1 962.7 324.1C963.1 324.1 963.7 324.1 964.1 324.1C964.5 324.1 964.9 324.1 965.2 324.1C965.8 324.1 966.4 323.8 967 323.8H976.4L981.5 323.6C982.1 323.8 982.7 323.9 983.3 323.9C984.7 323.8 986.1 323.6 987.4 323.5C987.8 323.5 988.3 323.6 988.7 323.7C989.2 323.9 989.7 323.9 990.2 323.9C991.7 323.4 993.3 323.4 994.8 323.9C995.1 323.9 995.5 323.9 995.8 323.7C996.1 323.6 996.4 323.6 996.6 323.6C997.1 323.7 997.8 323.8 998.4 323.9C998.5 323.9 998.7 323.9 998.8 323.9C999.1 323.9 999.4 323.7 999.6 323.5C999.8 323.2 999.9 322.9 999.8 322.6C999.9 321.5 999.2 321.5 998.5 321.5H987.8C987.4 321.5 987.1 321.4 986.7 321.3C986.3 321.2 985.9 321.2 985.5 321.1C983.8 321.2 982.2 321.5 980.5 321.5C980 321.5 979.4 321.4 978.9 321.3C978.4 321.2 977.9 321.1 977.4 321.1C974 321.2 970.6 321.4 967.1 321.5C966.6 321.5 966.1 321.4 965.6 321.3C965.5 321.1 965 321 964.6 321C957.5 321 950.3 321.2 943.2 321.2C942 321.3 940.9 321.2 939.7 321.2C939.1 321.2 938.5 321.2 938 321.2C937.6 321.1 937.1 321 936.7 321C936.1 321 935.6 321.3 935.1 321.3H927L911.4 321.5H905.6C904.3 321.5 902.9 321.3 901.6 321.3C897.9 321.1 894.3 321 890.6 321C888.7 321 886.7 321.3 884.7 321.3C884 321.3 883.3 321.3 882.6 321.2C882 321.1 881.4 321.1 880.8 321.1C880.5 321.1 880.2 321.1 879.9 321.2C879.6 321.2 879.3 321.3 879.1 321.3C877.7 321.2 876.3 321.1 875 321H874.5C872 321.1 869.5 321 867.1 321.1C865.5 321.2 863.9 321.1 862.3 321.1C861.5 321.1 860.7 321.1 859.9 321.1C856.3 321.1 852.5 321.3 849.1 321.3ZM855.5 372.6C858.1 369.9 859.5 366.2 859.3 362.3L859.2 360.3C859.2 358.8 859.2 358.6 857.6 358.3C856 358.2 854.3 358.2 852.7 358.5C852.6 358.5 852.5 358.5 852.5 358.5C852.2 358.5 852 358.7 851.8 358.9C851.6 359.1 851.6 359.4 851.6 359.7V364.1C851.7 365.4 851.1 366.6 850 367.1C848.5 367.8 846.7 367.2 845.8 365.8C845.1 365.1 844.8 364.1 844.9 363.1C845 362.5 844.9 362 844.7 361.4C844.5 360.8 844.4 360.2 844.6 359.6C844.9 357.8 845 355.9 844.7 354C844.7 353.3 844.7 352.6 844.7 351.9C844.7 350.5 844.7 349.2 844.7 347.9C844.9 346.3 844.9 344.7 844.7 343.1C844.4 341.8 845 340.5 846.2 340C846.3 339.9 846.4 339.9 846.5 339.8C847.4 339.3 848.2 338.9 849.1 339.8C849.4 339.9 849.6 339.9 849.9 340C850.9 340.3 851.6 341.2 851.6 342.3C851.7 343.2 851.6 344.1 851.5 345C851.4 345.5 851.4 346.1 851.4 346.6C851.4 346.8 851.4 346.9 851.4 347.1C851.6 347.9 852.4 348.5 853.2 348.3C854.3 348.3 855.4 348.5 856.5 348.7C858.8 349.2 859.7 348.3 859.2 346C858.9 344.6 858.8 343.1 859 341.6C859.4 339.1 858.3 336.6 856.1 335.3C855.6 335 855.2 334.5 854.8 334.2C852.2 332.1 848.7 331.3 845.4 332.2C844 332.7 842.7 333.3 841.5 334.1C840.4 334.5 839.5 335.1 838.7 336C836.9 338.2 835.9 341.1 836 344C836.2 346.1 836.1 348.3 836 350.4C835.9 352.1 835.9 353.9 836 355.6C836.1 357.1 836.1 358.7 836.1 360.2C836.1 362.5 836.1 364.7 836.3 367C836.4 368.2 836.9 369.3 837.7 370.2C838 370.5 838.3 370.8 838.6 371.1C840.3 374.4 843.9 374 846.6 375.2C849.2 375.1 851.8 374.5 854.3 373.5C854.9 373.1 855.2 372.9 855.5 372.6ZM925.4 361.4C926.4 360.7 927.5 360.9 928.6 361C928.9 361 929.3 361.1 929.6 361.1C930.3 361.1 930.3 361.7 930.2 362.4C930 363.9 930.3 365.3 931.2 366.5C932.2 367.9 934 368.5 935.7 367.8C938.1 367.3 938.4 364.2 937.6 362.3C936.7 360.2 935.1 358.5 933.2 357.5C931 356.2 929 354.6 927.1 352.9C925.2 351 923.9 348.6 923.4 346C922.7 343 923.3 339.7 925 337.1C926.7 334.5 929.5 332.8 932.6 332.5C934.3 332.3 936 332.5 937.6 332.8C941.7 333.7 943.8 336.5 944.8 340.4C945.3 341.7 945.5 343.1 945.3 344.5C945.3 345.5 944.5 346.4 943.5 346.4H943.3C941.8 345.8 940.3 346.2 938.8 345.7C938.7 345.7 938.7 345.7 938.6 345.6C938.2 345.5 937.8 345.4 937.9 344.8C938.1 341.5 937.3 338.6 933.4 339.4C931.6 339.8 930.5 341.6 930.8 343.4C930.9 344 931.2 344.5 931.5 344.9C932.7 346.4 934.2 347.8 935.8 348.9C937.3 350.2 938.9 351.2 940.4 352.4C942.4 354.1 944 356.3 945 358.8C945.8 360.6 946 362.7 945.4 364.6C945.2 365.1 945.1 365.6 945.1 366.1C945 368 944.1 369.8 942.6 371C942.3 371.2 942.1 371.5 941.8 371.7C940.2 373.5 937.9 374.5 935.5 374.4C932.9 374.6 930.2 374.2 927.7 373.5C927.4 373.5 927.2 373.4 927 373.2C926.2 371.9 924.9 370.9 924.2 369.6C923.2 368.1 922.7 366.3 922.9 364.5C923 363.9 923 363.3 922.9 362.6C922.9 361 923.1 360.7 924.6 360.7C924.9 361.2 925.2 361.3 925.4 361.4ZM889.2 342.9C889.1 341.5 889 340 889 338.6C889 337.2 889.1 335.8 889.1 334.3C889 333.2 888.8 333.1 887.8 333.2C886 333.4 884.3 333.4 882.5 333.2C880.8 333.1 880.4 333.4 880.3 335.1C880.1 336.7 880.3 338.3 880.4 340C880.6 342.2 880.7 344.5 880.2 346.7C880.2 347.1 880.3 347.5 880.5 347.9C880.7 348.4 880.8 348.8 881 349.3C881 349.4 881 349.5 881 349.6C881 349.8 880.9 349.9 880.8 350C880.7 350.1 880.5 350.2 880.4 350.2C878.6 349.9 876.7 349.9 874.9 350.3C874.1 350.5 873.3 350 873.1 349.2C873.1 347.7 873 346.3 872.8 344.8C873 343 873.2 341.2 873.2 339.4C873.1 338.4 873.2 337.4 873.2 336.4C873.2 335.7 873.3 335.1 873.3 334.4V334.3C873.4 333.8 873 333.2 872.5 333.1C871.7 332.9 870.9 333 870 333C869 333.1 868 333.2 866.9 332.7C866.4 332.7 865.9 332.8 865.4 333H865C864.9 333 864.8 333 864.7 333C864.5 333.1 864.3 333.3 864.2 333.5C864.1 333.7 864.1 334 864.2 334.2C864.3 335.6 864.3 337 864.2 338.4C864 339 864 339.5 864 340C864.3 340.6 864.2 341.3 864.2 341.9C864.2 342.5 864.2 343.1 864.4 343.5C864.8 344.3 864.6 344.9 864.3 345.5C864.2 345.9 864 346.2 864 346.6V347.9C863.9 349.7 863.9 351.4 864 353.2C864 355.2 864 357.2 863.9 359.2C863.9 360.2 864 361.2 864.1 362.2C864.2 363.5 864.3 364.7 864.2 366C864.1 368.1 864.1 370.2 864.2 372.3C864.2 373.9 866 374.1 866 374.1H871C871.8 374.1 872.4 373.5 872.5 372.7C872.8 369.7 872.8 366.7 872.5 363.7C872.2 362.5 872.3 361.3 872.7 360.2C873 359.7 873 359.1 872.7 358.6C872.3 357.9 872.7 357.6 873.4 357.6C875.6 357.8 877.7 357.7 879.9 357.4C880.2 357.3 880.5 357.4 880.7 357.6C880.9 357.8 880.9 358.1 880.8 358.4C880.6 359.4 880.5 360.5 880.5 361.5C880.7 362.6 880.8 363.7 880.8 364.7C880.5 366.2 880.6 367.6 880.6 369.1C880.6 370.2 880.6 371.3 880.5 372.3C880.4 373.9 880.8 374.3 882.2 374.3C884 374.3 885.9 374.3 887.7 374.2C888.9 374.1 889.4 373.1 888.9 371.7C888.8 371.4 888.8 371 888.8 370.7C888.9 366.7 888.9 362.6 888.9 358.6C889.2 357.5 889.4 356.3 889.5 355.1C889.2 352.7 889.1 350.4 889.3 348C889.4 346.3 889.3 344.6 889.2 342.9ZM966.3 349.5H962.6C962.1 349.5 961 349.5 959.9 349.5C959.2 349.5 958.9 349.3 959 348.5C959.4 346 959.3 343.4 958.7 340.9C958.7 340.8 958.7 340.7 958.7 340.5C958.7 340.3 958.8 340.2 958.9 340.1C959 340 959.2 340 959.3 340C959.7 340 960.1 340.1 960.5 340.2C961.8 340.6 963.3 340.7 964.6 340.3C965.4 340.2 966.1 340.2 966.9 340.3C967.7 340.3 968.8 340.4 969.6 340.5C970.4 340.5 970.9 340.1 970.7 339.4C970.5 337.9 970.5 336.5 970.7 335C970.7 333.3 970.7 333.3 968.9 333.3C967.6 333.2 966.2 333.3 964.9 333.4C963 333.5 961.2 333.6 959.3 333.3C958.2 333.1 957 333.2 955.9 333.2C954.9 333.3 953.8 333.3 952.9 333.2C950.9 332.9 950.3 333.8 950.6 335.9C950.9 337.4 950.9 338.9 950.9 340.5C950.8 342 950.8 343.4 950.9 344.9C951.1 347.7 951.1 350.6 951.1 353.5C951.1 354.2 951.1 354.9 951.1 355.7C951.1 356.8 951 357.9 951 359C950.9 360 950.9 361.1 950.9 362.1C950.9 363.8 951.1 365.2 951.1 367.1C951.2 369 951.2 370.9 951.1 372.8C951 373.5 951.1 374.1 952 374.1C953.7 374.2 955.4 374.1 957 374C959 373.7 961 373.7 963 373.9C963.7 373.9 964.3 373.9 965 373.9C966.4 373.9 967.8 373.9 969.3 374.1C970.7 374.3 971.1 373.6 971.1 372C970.8 370.7 970.7 369.3 970.8 368C970.9 367 970.5 366.8 969.6 366.8C968.6 366.8 967.7 366.8 966.7 366.8C964.8 366.8 962.9 366.7 961 366.8C959.2 366.9 959 366.8 959.2 364.9C959.2 364.6 959.3 364.3 959.3 364.1C959.7 362.7 959.7 361.3 959.3 359.9C959.2 359.4 959.2 358.9 959.2 358.5C959.2 358 959.3 357.5 959.1 357C959.1 356.9 959.1 356.9 959.1 356.8C959.1 356.6 959.2 356.5 959.4 356.3C959.5 356.2 959.7 356.1 959.9 356.2C960.8 356.3 961.7 356.3 962.6 356.2C963.9 356.3 965.2 356.3 966.5 356.1H966.6C966.8 356.1 966.9 356 967 355.9C967.1 355.8 967.2 355.6 967.2 355.4C967.1 354.7 967.3 354 967.4 353.3C967.6 352.5 967.7 351.7 967.6 350.8C967.6 350.7 967.6 350.7 967.6 350.6C967.6 350.3 967.5 350 967.3 349.9C966.8 349.6 966.5 349.5 966.3 349.5ZM990.4 333.6H984.3C982.1 333.5 979.8 333.5 977.5 333.4C976.7 333.4 976.2 333.7 976.4 334.5C976.6 336 976.6 337.4 976.4 338.9C976.4 344 976.4 349.1 976.3 354.1C976.5 356.6 976.4 359.1 976.2 361.5C976.2 362.7 976.3 363.9 976.6 365C976.7 366.1 976.6 367.3 976.6 368.4C976.5 369.7 976.4 371.1 976.6 372.5C976.8 373.7 976.8 373.8 978.1 373.8C979.9 373.6 981.7 373.5 983.5 373.5C984.3 373.6 984.5 373 984.6 372.3C984.7 370.5 984.6 368.7 984.4 366.9V358.8C984.3 358.3 984.3 357.8 984.4 357.3C984.9 356.5 987.7 356.9 988.4 357.1H988.6C989.4 357.2 990 357.6 990.5 358.2C991 358.8 991.2 359.6 991.1 360.3C991.2 361.8 991.1 363.3 991 364.7C990.7 367 990.9 369.3 991.6 371.5C991.8 372.5 992.5 373.3 993.5 373.6C994.8 373.9 996.2 374 997.6 374.1C1000.6 374.4 1000.5 373.4 999.8 371.3C999.7 370.9 999.5 370.5 999.3 370.1C999 369.5 998.8 368.9 998.8 368.2C998.6 365.7 998.5 363.1 998.6 360.6C999.2 358 997.9 355.2 995.4 354.1C994.8 353.8 994.7 353.5 995.4 353.1C997.4 352.1 998.6 350 998.2 347.7C998.1 347 998.1 346.3 998.3 345.6C998.8 344 998.5 342.5 998.3 341C998.2 340.4 998.1 339.7 998 339.1C997.9 338.3 997.7 337.6 997.3 336.9C995.8 334.9 993.2 333.5 990.4 333.6ZM907.1 366C906.1 366.1 905.1 366.2 904.1 366.2C903.4 366.1 902.8 366.6 902.7 367.3V367.4C902.4 368.9 902.3 370.3 902.2 371.8C902.2 373.8 902 374 900 373.9C898.3 374.1 896.7 374.1 895 373.9C894.5 373.8 894.2 373.4 894.3 372.9C894.3 372 894.4 371.1 894.6 370.2C895.3 368.3 895.7 366.2 895.7 364.2C895.7 363.7 895.8 363.2 896 362.8C896.7 361.1 897.2 359.3 897.3 357.4C897.3 355.8 897.6 354.2 898.4 352.8C898.7 352.1 898.8 351.3 898.8 350.5C899.6 346.3 900.5 342.2 901.4 338C901.9 336.8 902.1 335.4 902 334.1C901.7 333.4 902.5 333.4 903 333.4H907.3C908.1 333.5 908.8 333.5 909.6 333.4C911.3 333.1 911.7 333.4 911.9 335.1C912.4 337 912.7 338.9 912.7 340.9C912.8 341.7 913 342.5 913.4 343.3C914 345.2 913.8 347.3 914.3 349.2C914.9 351.1 915.4 353.1 915.7 355.2C915.9 357.2 916.3 359.2 917 361.2C917.1 361.6 917.1 362.1 917 362.5C917 363.5 917.2 364.5 917.6 365.3C918.1 366.3 918.4 367.4 918.3 368.5C918.1 369.8 918.3 371.2 919 372.3C919.6 373.4 919.3 373.6 918.1 373.9C916.7 374.1 915.2 374 913.8 373.7C913.5 373.6 913.1 373.7 912.7 373.7C912.1 373.8 911.6 373.9 911.1 373.5C910.8 372.7 910.6 371.9 910.7 371.1C910.2 369.6 910 368.1 910.1 366.6C910.1 366.1 909.9 366 909.5 366H907.1ZM990.9 348C990.9 347.2 990.9 346.4 990.8 345.6C990.7 344.7 990.7 343.8 990.7 343C990.9 342.1 990.6 341.2 989.9 340.6C989.2 340 988.3 339.8 987.5 340.1C987 340.2 986.6 340.3 986.1 340.3C984.8 340.4 984.5 340.7 984.6 341.9C984.5 343.6 984.6 345.2 984.8 346.9C985 347.6 984.7 348.3 984.5 348.9C984.2 349.8 983.9 350.6 984.6 351.2C985.7 351.6 986.9 351.6 988.1 351.2C989.7 351.1 991 349.7 990.9 348ZM905.6 359.2C904.3 359.1 904.2 358.9 904.3 357.5C904.3 357.2 904.3 356.8 904.4 356.5C905.2 354.1 905.7 351.6 905.7 349.1V348.3C905.7 348.1 905.9 347.9 906.1 347.9C906.4 347.9 906.7 348 906.7 348.3C906.8 348.5 906.8 348.7 906.8 348.9C906.4 350.1 906.7 351.2 907 352.3C907.1 352.8 907.3 353.3 907.4 353.8C907.7 355.5 908.1 357.2 908.5 358.9C908.6 359.5 908.6 359.7 907.9 359.5C907.2 359.3 906.4 359.2 905.6 359.2ZM925.6 361.6C925.5 361.7 925.5 361.7 925.5 361.5L925.6 361.6ZM994.1 386.5C994.9 386.7 995.7 386.8 996.5 386.6L996.4 386.5H997.7C999.2 386.5 999.9 386.1 999.9 385.2C999.9 384.3 999.3 383.9 997.8 383.7C996.8 383.6 995.8 383.7 994.7 383.8C993.7 383.9 992.6 384 991.6 383.9C989.6 383.7 987.6 383.7 985.6 383.9C984.2 384 982.8 383.9 981.5 383.9C980 383.9 978.5 383.8 976.9 383.9C975.3 384 973.6 384 972 383.9C971.2 383.9 970.4 383.9 969.6 383.9C968.6 383.9 967.7 383.9 966.8 383.9C964.9 383.9 963.1 384 961.3 383.9C958.9 383.7 956.5 383.7 954.2 383.9C952.8 384.1 951.4 384.1 950.1 383.9C948.5 383.7 946.9 383.7 945.3 383.9C944 384.1 942.7 384.1 941.4 384C938.6 383.9 935.7 383.9 932.9 383.9C929.7 384.2 926.5 384.2 923.3 383.9C921.7 383.5 920 383.6 918.4 384.2C918.1 384.3 917.7 384.3 917.4 384.2C915.2 383.8 913 383.7 910.8 383.9C910.3 383.9 909.7 384 909.2 384C908.6 384.1 908 384.2 907.3 384.1C905.5 383.8 903.6 383.7 901.8 383.8C897.9 384.2 893.9 384.3 890 384.1L869.5 384C865.9 384 862.3 383.8 858.6 383.8C856.4 383.7 854.1 383.7 851.9 383.8C850.1 384 848.2 384 846.4 383.8C845.2 383.6 843.9 383.6 842.7 383.7C842.3 383.8 841.9 383.8 841.5 383.7C840.2 383.3 838.9 383.2 837.6 383.6C837.4 383.6 837.3 383.6 837.1 383.6C836.2 383.8 835.6 384.6 835.8 385.5C836 386.6 836.8 386.5 837.5 386.5C837.6 386.5 837.6 386.5 837.7 386.5C839.6 386.6 841.5 386.6 843.3 386.5C847.4 386.6 851.7 386.6 855.7 386.6C857.3 386.6 858.9 386.5 860.4 386.5C862.8 386.4 865.2 386.3 867.6 386.4C872.3 386.5 876.9 386.5 881.6 386.5C883.1 386.6 884.7 386.6 886.2 386.5C887.8 386.2 889.5 386.3 891.1 386.9C891.6 387.1 892.1 387.1 892.5 386.9C894.7 386.3 897 386.2 899.3 386.7C900.7 386.8 902.1 386.8 903.4 386.8C904.2 386.8 905 386.7 905.8 386.7C906.8 386.6 907.9 386.5 908.9 386.6C911.7 386.9 914.6 386.9 917.4 386.6C918 386.5 918.6 386.5 919.2 386.6C920.4 387 921.6 387.1 922.9 386.9C926.2 386.3 929.5 386.2 932.8 386.5C935.7 386.8 938.6 386.8 941.5 386.4C942.9 386.1 944.4 386.1 945.9 386.4C946.9 386.6 947.8 386.6 948.8 386.4C950.8 386.2 952.8 386.1 954.9 386.2C960.5 386.3 966.2 386.3 971.8 386.4C974.6 386.2 977.5 386.2 980.3 386.4C981.1 386.3 982 386.3 982.8 386.3C984 386.6 985.1 386.5 986.3 386.4C987.3 386.3 988.2 386.2 989.2 386.3C990.1 386.4 991.1 386.4 992.1 386.3C992.7 386.2 993.4 386.3 994.1 386.5ZM839 387.7H839.1C841.6 388.1 844.1 388.1 846.5 387.6C847.4 387.4 848.3 387.5 849.2 387.8C850.1 388 851 388 851.9 387.7C854 387.5 856.2 387.5 858.4 387.9C859.4 388.1 860.3 388.1 861.3 387.9C863.3 387.6 865.3 387.5 867.4 387.7C868.1 387.7 868.9 387.7 869.6 387.7C871.6 387.7 873.7 387.7 875.8 387.8C877.2 387.9 878.7 387.9 880.1 387.8C882.2 387.7 884.2 387.6 886.3 388.1C889.6 387.8 893 387.9 896.3 388C898 388.1 899.6 388.1 901.3 388.1C902.9 388.2 904.5 388.2 906 387.8C906.3 387.7 906.7 387.7 907 387.8C909 388 911.2 388 913.5 388C914.7 388 915.9 388 917.2 388C919.9 388 922.4 388 925 387.9C925.7 387.9 926.4 387.9 927 387.9C928.4 387.9 929.7 387.8 931.1 387.9C932.7 388 934.3 388 935.9 387.9C937.2 387.9 938.4 387.8 939.7 387.9C941.2 388 942.8 388 944.3 387.9C945.4 387.6 946.5 387.5 947.6 387.5C948.6 387.6 949.5 387.7 950.5 387.8C951.1 388.1 951.9 388.1 952.6 387.8C953 387.6 953.5 387.6 953.9 387.6C955.3 387.6 956.7 387.6 958.1 387.6C961.6 387.6 965.1 387.5 968.6 387.7C971.3 387.9 974.1 387.9 976.8 387.7C979 387.5 981.2 387.6 983.4 387.6C984.5 387.6 985.7 387.7 986.8 387.7C988.1 387.7 989.3 387.7 990.6 387.8C993.1 387.9 995.6 388 998.2 387.7C998.6 387.6 999 387.7 999.3 387.9C999.6 388.1 999.9 388.4 1000 388.8C1000 388.9 1000 389.1 1000 389.2C999.9 390.1 999.1 390.7 998.3 390.6C996.1 390.1 993.8 390 991.5 390.3C989.3 390 987.2 390.1 985.1 390.6C984.8 390.7 984.4 390.7 984.1 390.6C981.8 390 979.4 390 977.1 390.5C976.5 390.5 976 390.4 975.4 390.3C974.9 390.2 974.4 390.1 973.8 390.1L967.9 390.3C964.9 390.4 962 390.4 959 390.3C957.5 390.3 956 390.3 954.5 390.3C953.3 390.3 952.1 390.3 950.8 390.3C948.4 390.3 946 390.2 943.6 390.3C941 390.4 938.4 390.3 935.8 390.3C933.2 390.3 930.6 390.2 928 390.3C925 390.6 922 390.5 919.1 390.2C919 390.2 918.8 390.2 918.7 390.2C917.8 390.6 916.8 390.5 915.9 390.5C915.2 390.5 914.6 390.4 913.9 390.5C912.7 390.4 911.5 390.4 910.4 390.5C908.8 390.8 907.1 390.8 905.5 390.5C903.6 390.3 901.7 390.4 899.8 390.9C899.5 391 899.2 391 899 390.9C896.8 390.5 894.6 390.5 892.5 390.9C891.4 390.9 890.3 390.8 889.3 390.6C887.3 390.6 885.2 390.7 883.2 390.9C882.1 390.8 881 390.7 880 390.4C879.6 390.3 879.2 390.2 878.8 390.3C876.9 390.6 875 390.5 873.2 390.5C871.7 390.4 870.2 390.4 868.7 390.5C865.9 390.7 863 390.7 860.2 390.6C858.8 390.6 857.3 390.5 855.9 390.5L839.7 390.4H837.6C837 390.3 836.6 389.8 836.7 389.2C836.6 388.9 836.7 388.7 836.8 388.5C836.9 388.3 837.2 388.1 837.4 388.1H837.6L839 387.7Z" fill="#302E3F"/>
<path d="M610.655 234.116V234C610.627 231.158 611.171 228.34 612.256 225.714C613.34 223.087 614.943 220.706 616.967 218.712C618.992 216.718 621.398 215.152 624.04 214.107C626.683 213.063 629.509 212.562 632.35 212.633C645.037 212.633 653.891 222.288 653.891 233.875V233.99C653.92 236.829 653.378 239.645 652.296 242.271C651.215 244.896 649.616 247.276 647.596 249.271C645.575 251.265 643.174 252.833 640.535 253.88C637.896 254.928 635.073 255.433 632.234 255.367C619.538 255.367 610.655 245.741 610.655 234.116ZM646.244 234.116V234C646.244 225.977 640.393 219.305 632.196 219.305C623.999 219.305 618.263 225.851 618.263 233.884V234C618.263 242.023 624.057 248.637 632.312 248.637C640.567 248.637 646.283 242.149 646.283 234.116H646.244Z" fill="#302E3F"/>
<path d="M662.687 213.348H669.948V248.048H691.672V254.652H662.706L662.687 213.348Z" fill="#302E3F"/>
<path d="M699.637 213.348H706.898V254.652H699.637V213.348Z" fill="#302E3F"/>
<path d="M716.109 234.116V234C716.081 231.162 716.624 228.347 717.706 225.723C718.788 223.099 720.387 220.719 722.408 218.726C724.428 216.732 726.829 215.166 729.468 214.119C732.106 213.072 734.928 212.567 737.765 212.633C750.462 212.633 759.306 222.288 759.306 233.875V233.99C759.334 236.829 758.791 239.644 757.709 242.268C756.627 244.892 755.028 247.271 753.007 249.265C750.987 251.258 748.586 252.825 745.948 253.872C743.309 254.918 740.487 255.424 737.65 255.357C724.963 255.367 716.109 245.741 716.109 234.116ZM751.698 234.116V234C751.698 225.977 745.857 219.305 737.65 219.305C729.443 219.305 723.717 225.851 723.717 233.884V234C723.717 242.024 729.568 248.637 737.765 248.637C745.963 248.637 751.698 242.149 751.698 234.116Z" fill="#302E3F"/>
<path d="M10.27 100.805H12.8145V114.397C12.8145 116.234 12.2607 117.671 11.1533 118.708C10.0547 119.745 8.58691 120.264 6.75 120.264C4.84277 120.264 3.35742 119.776 2.29395 118.8C1.23047 117.825 0.69873 116.458 0.69873 114.7H3.22998C3.22998 115.799 3.52881 116.656 4.12646 117.271C4.73291 117.886 5.60742 118.194 6.75 118.194C7.7959 118.194 8.63965 117.864 9.28125 117.205C9.93164 116.546 10.2612 115.623 10.27 114.437V100.805ZM16.0972 112.736C16.0972 111.338 16.3696 110.082 16.9146 108.965C17.4683 107.849 18.2329 106.988 19.2085 106.381C20.1929 105.775 21.3135 105.472 22.5703 105.472C24.5127 105.472 26.0815 106.144 27.2769 107.489C28.481 108.833 29.083 110.622 29.083 112.854V113.026C29.083 114.415 28.8149 115.663 28.2788 116.77C27.7515 117.869 26.9912 118.726 25.998 119.341C25.0137 119.956 23.8799 120.264 22.5967 120.264C20.6631 120.264 19.0942 119.591 17.8901 118.247C16.6948 116.902 16.0972 115.122 16.0972 112.907V112.736ZM18.5493 113.026C18.5493 114.608 18.9141 115.878 19.6436 116.836C20.3818 117.794 21.3662 118.273 22.5967 118.273C23.8359 118.273 24.8203 117.79 25.5498 116.823C26.2793 115.847 26.644 114.485 26.644 112.736C26.644 111.171 26.2705 109.906 25.5234 108.939C24.7852 107.963 23.8008 107.476 22.5703 107.476C21.3662 107.476 20.395 107.955 19.6567 108.913C18.9185 109.871 18.5493 111.242 18.5493 113.026ZM34.7915 120H32.3525V105.735H34.7915V120ZM32.1548 101.952C32.1548 101.556 32.2734 101.222 32.5107 100.95C32.7568 100.677 33.1172 100.541 33.5918 100.541C34.0664 100.541 34.4268 100.677 34.6729 100.95C34.9189 101.222 35.042 101.556 35.042 101.952C35.042 102.347 34.9189 102.677 34.6729 102.94C34.4268 103.204 34.0664 103.336 33.5918 103.336C33.1172 103.336 32.7568 103.204 32.5107 102.94C32.2734 102.677 32.1548 102.347 32.1548 101.952ZM41.0142 105.735L41.0933 107.528C42.1831 106.157 43.6069 105.472 45.3647 105.472C48.3794 105.472 49.8999 107.172 49.9263 110.574V120H47.4873V110.561C47.4785 109.532 47.2412 108.772 46.7754 108.28C46.3184 107.788 45.6021 107.542 44.6265 107.542C43.8354 107.542 43.1411 107.752 42.5435 108.174C41.9458 108.596 41.48 109.15 41.146 109.835V120H38.707V105.735H41.0142ZM72.6284 120H60.0513V118.247L66.6958 110.864C67.6802 109.748 68.3569 108.842 68.7261 108.148C69.104 107.445 69.293 106.72 69.293 105.973C69.293 104.971 68.9897 104.149 68.3833 103.507C67.7769 102.866 66.9683 102.545 65.9575 102.545C64.7446 102.545 63.7998 102.892 63.123 103.586C62.4551 104.272 62.1211 105.23 62.1211 106.46H59.6821C59.6821 104.694 60.249 103.266 61.3828 102.176C62.5254 101.086 64.0503 100.541 65.9575 100.541C67.7417 100.541 69.1523 101.011 70.1895 101.952C71.2266 102.883 71.7451 104.127 71.7451 105.683C71.7451 107.572 70.541 109.822 68.1328 112.433L62.9912 118.009H72.6284V120ZM87.249 111.813C87.249 114.669 86.7612 116.792 85.7856 118.181C84.8101 119.569 83.2852 120.264 81.2109 120.264C79.1631 120.264 77.647 119.587 76.6626 118.233C75.6782 116.871 75.1685 114.841 75.1333 112.143V108.886C75.1333 106.065 75.6211 103.969 76.5967 102.598C77.5723 101.227 79.1016 100.541 81.1846 100.541C83.25 100.541 84.7705 101.205 85.7461 102.532C86.7217 103.85 87.2227 105.889 87.249 108.649V111.813ZM84.8101 108.478C84.8101 106.412 84.52 104.909 83.9399 103.969C83.3599 103.02 82.4414 102.545 81.1846 102.545C79.9365 102.545 79.0269 103.015 78.4556 103.956C77.8843 104.896 77.5898 106.342 77.5723 108.293V112.195C77.5723 114.27 77.8711 115.803 78.4688 116.796C79.0752 117.781 79.9893 118.273 81.2109 118.273C82.415 118.273 83.3071 117.807 83.8872 116.875C84.4761 115.944 84.7837 114.476 84.8101 112.472V108.478ZM102.41 111.813C102.41 114.669 101.922 116.792 100.947 118.181C99.9712 119.569 98.4463 120.264 96.3721 120.264C94.3242 120.264 92.8081 119.587 91.8237 118.233C90.8394 116.871 90.3296 114.841 90.2944 112.143V108.886C90.2944 106.065 90.7822 103.969 91.7578 102.598C92.7334 101.227 94.2627 100.541 96.3457 100.541C98.4111 100.541 99.9316 101.205 100.907 102.532C101.883 103.85 102.384 105.889 102.41 108.649V111.813ZM99.9712 108.478C99.9712 106.412 99.6812 104.909 99.1011 103.969C98.521 103.02 97.6025 102.545 96.3457 102.545C95.0977 102.545 94.188 103.015 93.6167 103.956C93.0454 104.896 92.751 106.342 92.7334 108.293V112.195C92.7334 114.27 93.0322 115.803 93.6299 116.796C94.2363 117.781 95.1504 118.273 96.3721 118.273C97.5762 118.273 98.4683 117.807 99.0483 116.875C99.6372 115.944 99.9448 114.476 99.9712 112.472V108.478ZM112.772 109.704H118.125V112.011H112.772V118.075H110.32V112.011H104.968V109.704H110.32V104.101H112.772V109.704ZM136.608 120C136.468 119.719 136.354 119.218 136.266 118.497C135.132 119.675 133.778 120.264 132.205 120.264C130.799 120.264 129.643 119.868 128.738 119.077C127.841 118.277 127.393 117.267 127.393 116.045C127.393 114.56 127.956 113.408 129.081 112.591C130.214 111.765 131.805 111.352 133.853 111.352H136.226V110.231C136.226 109.378 135.971 108.702 135.461 108.201C134.952 107.691 134.2 107.436 133.207 107.436C132.337 107.436 131.607 107.656 131.019 108.095C130.43 108.535 130.135 109.066 130.135 109.69H127.683C127.683 108.979 127.934 108.293 128.435 107.634C128.944 106.966 129.63 106.438 130.491 106.052C131.361 105.665 132.315 105.472 133.352 105.472C134.996 105.472 136.283 105.885 137.215 106.711C138.146 107.528 138.63 108.658 138.665 110.099V116.665C138.665 117.974 138.832 119.016 139.166 119.789V120H136.608ZM132.561 118.141C133.326 118.141 134.051 117.943 134.736 117.548C135.422 117.152 135.918 116.638 136.226 116.005V113.079H134.314C131.326 113.079 129.832 113.953 129.832 115.702C129.832 116.467 130.087 117.064 130.597 117.495C131.106 117.926 131.761 118.141 132.561 118.141ZM144.782 105.735L144.848 107.317C145.894 106.087 147.305 105.472 149.08 105.472C151.075 105.472 152.433 106.236 153.154 107.766C153.628 107.08 154.244 106.526 155 106.104C155.764 105.683 156.665 105.472 157.702 105.472C160.831 105.472 162.422 107.128 162.475 110.442V120H160.036V110.587C160.036 109.567 159.803 108.807 159.337 108.306C158.871 107.796 158.089 107.542 156.99 107.542C156.085 107.542 155.333 107.814 154.736 108.359C154.138 108.895 153.791 109.62 153.694 110.534V120H151.242V110.653C151.242 108.579 150.227 107.542 148.197 107.542C146.597 107.542 145.503 108.223 144.914 109.585V120H142.475V105.735H144.782ZM174.973 120C174.832 119.719 174.718 119.218 174.63 118.497C173.496 119.675 172.143 120.264 170.569 120.264C169.163 120.264 168.007 119.868 167.102 119.077C166.206 118.277 165.757 117.267 165.757 116.045C165.757 114.56 166.32 113.408 167.445 112.591C168.579 111.765 170.169 111.352 172.217 111.352H174.59V110.231C174.59 109.378 174.335 108.702 173.826 108.201C173.316 107.691 172.564 107.436 171.571 107.436C170.701 107.436 169.972 107.656 169.383 108.095C168.794 108.535 168.5 109.066 168.5 109.69H166.047C166.047 108.979 166.298 108.293 166.799 107.634C167.309 106.966 167.994 106.438 168.855 106.052C169.726 105.665 170.679 105.472 171.716 105.472C173.36 105.472 174.647 105.885 175.579 106.711C176.511 107.528 176.994 108.658 177.029 110.099V116.665C177.029 117.974 177.196 119.016 177.53 119.789V120H174.973ZM170.925 118.141C171.69 118.141 172.415 117.943 173.101 117.548C173.786 117.152 174.283 116.638 174.59 116.005V113.079H172.679C169.69 113.079 168.196 113.953 168.196 115.702C168.196 116.467 168.451 117.064 168.961 117.495C169.471 117.926 170.125 118.141 170.925 118.141ZM183.146 118.009H191.492V120H180.167V118.207L188.038 107.752H180.286V105.735H191.096V107.462L183.146 118.009ZM196.897 120H194.458V105.735H196.897V120ZM194.26 101.952C194.26 101.556 194.379 101.222 194.616 100.95C194.862 100.677 195.223 100.541 195.697 100.541C196.172 100.541 196.532 100.677 196.778 100.95C197.024 101.222 197.147 101.556 197.147 101.952C197.147 102.347 197.024 102.677 196.778 102.94C196.532 103.204 196.172 103.336 195.697 103.336C195.223 103.336 194.862 103.204 194.616 102.94C194.379 102.677 194.26 102.347 194.26 101.952ZM203.12 105.735L203.199 107.528C204.289 106.157 205.712 105.472 207.47 105.472C210.485 105.472 212.005 107.172 212.032 110.574V120H209.593V110.561C209.584 109.532 209.347 108.772 208.881 108.28C208.424 107.788 207.708 107.542 206.732 107.542C205.941 107.542 205.247 107.752 204.649 108.174C204.051 108.596 203.585 109.15 203.251 109.835V120H200.812V105.735H203.12ZM215.13 112.749C215.13 110.525 215.644 108.759 216.672 107.449C217.701 106.131 219.063 105.472 220.759 105.472C222.5 105.472 223.857 106.087 224.833 107.317L224.952 105.735H227.18V119.657C227.18 121.503 226.63 122.958 225.532 124.021C224.442 125.084 222.974 125.616 221.128 125.616C220.1 125.616 219.094 125.396 218.109 124.957C217.125 124.518 216.374 123.916 215.855 123.151L217.121 121.688C218.167 122.979 219.445 123.625 220.957 123.625C222.144 123.625 223.066 123.292 223.726 122.624C224.394 121.956 224.728 121.015 224.728 119.802V118.576C223.752 119.701 222.42 120.264 220.733 120.264C219.063 120.264 217.709 119.591 216.672 118.247C215.644 116.902 215.13 115.069 215.13 112.749ZM217.582 113.026C217.582 114.634 217.912 115.9 218.571 116.823C219.23 117.737 220.153 118.194 221.339 118.194C222.877 118.194 224.007 117.495 224.728 116.098V109.585C223.98 108.223 222.86 107.542 221.366 107.542C220.179 107.542 219.252 108.003 218.584 108.926C217.916 109.849 217.582 111.215 217.582 113.026ZM7.56738 154.273C8.4375 154.273 9.19775 154.009 9.84814 153.482C10.4985 152.955 10.8589 152.295 10.9292 151.504H13.2363C13.1924 152.322 12.9111 153.1 12.3926 153.838C11.874 154.576 11.1797 155.165 10.3096 155.604C9.44824 156.044 8.53418 156.264 7.56738 156.264C5.625 156.264 4.07812 155.618 2.92676 154.326C1.78418 153.025 1.21289 151.25 1.21289 149V148.591C1.21289 147.202 1.46777 145.967 1.97754 144.886C2.4873 143.805 3.2168 142.966 4.16602 142.368C5.12402 141.771 6.25342 141.472 7.5542 141.472C9.15381 141.472 10.481 141.951 11.5356 142.909C12.5991 143.867 13.166 145.11 13.2363 146.64H10.9292C10.8589 145.717 10.5073 144.961 9.87451 144.372C9.25049 143.774 8.47705 143.476 7.5542 143.476C6.31494 143.476 5.35254 143.924 4.66699 144.82C3.99023 145.708 3.65186 146.996 3.65186 148.683V149.145C3.65186 150.788 3.99023 152.054 4.66699 152.941C5.34375 153.829 6.31055 154.273 7.56738 154.273ZM15.3325 148.736C15.3325 147.338 15.605 146.082 16.1499 144.965C16.7036 143.849 17.4683 142.988 18.4438 142.381C19.4282 141.775 20.5488 141.472 21.8057 141.472C23.748 141.472 25.3169 142.144 26.5122 143.489C27.7163 144.833 28.3184 146.622 28.3184 148.854V149.026C28.3184 150.415 28.0503 151.663 27.5142 152.77C26.9868 153.869 26.2266 154.726 25.2334 155.341C24.249 155.956 23.1152 156.264 21.832 156.264C19.8984 156.264 18.3296 155.591 17.1255 154.247C15.9302 152.902 15.3325 151.122 15.3325 148.907V148.736ZM17.7847 149.026C17.7847 150.608 18.1494 151.878 18.8789 152.836C19.6172 153.794 20.6016 154.273 21.832 154.273C23.0713 154.273 24.0557 153.79 24.7852 152.823C25.5146 151.847 25.8794 150.485 25.8794 148.736C25.8794 147.171 25.5059 145.906 24.7588 144.939C24.0205 143.963 23.0361 143.476 21.8057 143.476C20.6016 143.476 19.6304 143.955 18.8921 144.913C18.1538 145.871 17.7847 147.242 17.7847 149.026ZM33.6709 141.735L33.7368 143.317C34.7827 142.087 36.1934 141.472 37.9688 141.472C39.9639 141.472 41.3218 142.236 42.0425 143.766C42.5171 143.08 43.1323 142.526 43.8882 142.104C44.6528 141.683 45.5537 141.472 46.5908 141.472C49.7197 141.472 51.3105 143.128 51.3633 146.442V156H48.9243V146.587C48.9243 145.567 48.6914 144.807 48.2256 144.306C47.7598 143.796 46.9775 143.542 45.8789 143.542C44.9736 143.542 44.2222 143.814 43.6245 144.359C43.0269 144.895 42.6797 145.62 42.583 146.534V156H40.1309V146.653C40.1309 144.579 39.1157 143.542 37.0854 143.542C35.4858 143.542 34.3916 144.223 33.8027 145.585V156H31.3638V141.735H33.6709ZM67.1045 149.026C67.1045 151.197 66.6079 152.946 65.6147 154.273C64.6216 155.6 63.2769 156.264 61.5806 156.264C59.8491 156.264 58.4868 155.714 57.4937 154.616V161.484H55.0547V141.735H57.2827L57.4014 143.317C58.3945 142.087 59.7744 141.472 61.541 141.472C63.2549 141.472 64.6084 142.118 65.6016 143.41C66.6035 144.702 67.1045 146.499 67.1045 148.802V149.026ZM64.6655 148.749C64.6655 147.141 64.3228 145.871 63.6372 144.939C62.9517 144.007 62.0112 143.542 60.8159 143.542C59.3394 143.542 58.2319 144.196 57.4937 145.506V152.322C58.2231 153.623 59.3394 154.273 60.8423 154.273C62.0112 154.273 62.9385 153.812 63.624 152.889C64.3184 151.957 64.6655 150.577 64.6655 148.749ZM79.0225 156C78.8818 155.719 78.7676 155.218 78.6797 154.497C77.5459 155.675 76.1924 156.264 74.6191 156.264C73.2129 156.264 72.0571 155.868 71.1519 155.077C70.2554 154.277 69.8071 153.267 69.8071 152.045C69.8071 150.56 70.3696 149.408 71.4946 148.591C72.6284 147.765 74.2192 147.352 76.2671 147.352H78.6401V146.231C78.6401 145.378 78.3853 144.702 77.8755 144.201C77.3657 143.691 76.6143 143.436 75.6211 143.436C74.751 143.436 74.0215 143.656 73.4326 144.095C72.8438 144.535 72.5493 145.066 72.5493 145.69H70.0972C70.0972 144.979 70.3477 144.293 70.8486 143.634C71.3584 142.966 72.0439 142.438 72.9053 142.052C73.7754 141.665 74.729 141.472 75.7661 141.472C77.4097 141.472 78.6973 141.885 79.6289 142.711C80.5605 143.528 81.0439 144.658 81.0791 146.099V152.665C81.0791 153.974 81.2461 155.016 81.5801 155.789V156H79.0225ZM74.9751 154.141C75.7397 154.141 76.4648 153.943 77.1504 153.548C77.8359 153.152 78.3325 152.638 78.6401 152.005V149.079H76.7285C73.7402 149.079 72.2461 149.953 72.2461 151.702C72.2461 152.467 72.501 153.064 73.0107 153.495C73.5205 153.926 74.1753 154.141 74.9751 154.141ZM87.2095 141.735L87.2886 143.528C88.3784 142.157 89.8022 141.472 91.5601 141.472C94.5747 141.472 96.0952 143.172 96.1216 146.574V156H93.6826V146.561C93.6738 145.532 93.4365 144.772 92.9707 144.28C92.5137 143.788 91.7974 143.542 90.8218 143.542C90.0308 143.542 89.3364 143.752 88.7388 144.174C88.1411 144.596 87.6753 145.15 87.3413 145.835V156H84.9023V141.735H87.2095ZM102.45 156H100.011V141.735H102.45V156ZM99.813 137.952C99.813 137.556 99.9316 137.222 100.169 136.95C100.415 136.677 100.775 136.541 101.25 136.541C101.725 136.541 102.085 136.677 102.331 136.95C102.577 137.222 102.7 137.556 102.7 137.952C102.7 138.347 102.577 138.677 102.331 138.94C102.085 139.204 101.725 139.336 101.25 139.336C100.775 139.336 100.415 139.204 100.169 138.94C99.9316 138.677 99.813 138.347 99.813 137.952ZM112.285 156.264C110.351 156.264 108.778 155.631 107.565 154.365C106.352 153.091 105.746 151.39 105.746 149.263V148.815C105.746 147.4 106.014 146.139 106.55 145.031C107.095 143.915 107.851 143.045 108.817 142.421C109.793 141.788 110.848 141.472 111.981 141.472C113.836 141.472 115.277 142.083 116.306 143.304C117.334 144.526 117.848 146.275 117.848 148.551V149.566H108.185C108.22 150.973 108.628 152.111 109.411 152.981C110.202 153.842 111.204 154.273 112.417 154.273C113.278 154.273 114.007 154.097 114.605 153.746C115.203 153.394 115.726 152.928 116.174 152.348L117.664 153.508C116.468 155.345 114.675 156.264 112.285 156.264ZM111.981 143.476C110.997 143.476 110.171 143.836 109.503 144.557C108.835 145.269 108.422 146.271 108.264 147.562H115.409V147.378C115.339 146.139 115.005 145.181 114.407 144.504C113.81 143.818 113.001 143.476 111.981 143.476ZM128.988 152.216C128.988 151.557 128.738 151.047 128.237 150.687C127.745 150.318 126.879 150.001 125.64 149.738C124.409 149.474 123.429 149.158 122.7 148.789C121.979 148.419 121.443 147.98 121.091 147.47C120.749 146.96 120.577 146.354 120.577 145.651C120.577 144.482 121.069 143.493 122.054 142.685C123.047 141.876 124.312 141.472 125.851 141.472C127.468 141.472 128.777 141.889 129.779 142.724C130.79 143.559 131.295 144.627 131.295 145.928H128.843C128.843 145.26 128.558 144.684 127.986 144.201C127.424 143.717 126.712 143.476 125.851 143.476C124.963 143.476 124.269 143.669 123.768 144.056C123.267 144.442 123.016 144.948 123.016 145.572C123.016 146.161 123.249 146.604 123.715 146.903C124.181 147.202 125.02 147.488 126.233 147.76C127.455 148.033 128.443 148.358 129.199 148.736C129.955 149.114 130.513 149.571 130.874 150.107C131.243 150.634 131.427 151.28 131.427 152.045C131.427 153.319 130.917 154.343 129.898 155.117C128.878 155.881 127.556 156.264 125.93 156.264C124.787 156.264 123.776 156.062 122.897 155.657C122.019 155.253 121.329 154.69 120.828 153.97C120.335 153.24 120.089 152.454 120.089 151.61H122.528C122.572 152.427 122.897 153.078 123.504 153.561C124.119 154.036 124.928 154.273 125.93 154.273C126.853 154.273 127.591 154.088 128.145 153.719C128.707 153.341 128.988 152.84 128.988 152.216Z" fill="black"/>
</svg>
